<svg width="50" height="50" viewBox="0 0 188 188" fill="none" xmlns="http://www.w3.org/2000/svg">
<path d="M65.8 94H53.2663C52.4354 94 51.6381 94.3294 51.0506 94.9169C50.4631 95.5044 50.1326 96.3017 50.1337 97.1337V128.468V128.467C50.1326 129.299 50.4631 130.096 51.0506 130.684C51.6381 131.271 52.4354 131.601 53.2663 131.601H65.8C66.6309 131.601 67.4282 131.271 68.0157 130.684C68.6043 130.096 68.9337 129.299 68.9337 128.467V119.067H125.334V128.467C125.333 129.299 125.663 130.096 126.251 130.684C126.838 131.271 127.635 131.601 128.466 131.601H141C141.831 131.601 142.628 131.271 143.216 130.684C143.804 130.096 144.134 129.299 144.134 128.467V97.1326V97.1337C144.134 96.3017 143.804 95.5044 143.216 94.9169C142.628 94.3294 141.831 94 141 94H128.466C127.635 94 126.838 94.3294 126.251 94.9169C125.663 95.5044 125.333 96.3017 125.334 97.1337V112.8H112.8V109.666C112.8 108.835 112.471 108.038 111.883 107.451C111.296 106.863 110.498 106.533 109.666 106.534H100.266V37.5994H109.666C110.498 37.5994 111.296 37.27 111.883 36.6825C112.471 36.095 112.8 35.2977 112.8 34.4657V31.3331H125.334V46.9994C125.333 47.8303 125.663 48.6277 126.251 49.2152C126.838 49.8037 127.635 50.1331 128.466 50.1331H141C141.831 50.1331 142.628 49.8037 143.216 49.2152C143.804 48.6277 144.134 47.8303 144.134 46.9994V15.6652C144.134 14.8343 143.804 14.037 143.216 13.4495C142.628 12.862 141.831 12.5315 141 12.5326H128.466C127.635 12.5315 126.838 12.862 126.251 13.4495C125.663 14.037 125.333 14.8343 125.334 15.6652V25.0652H68.9337V15.6652C68.9337 14.8343 68.6043 14.037 68.0157 13.4495C67.4282 12.862 66.6309 12.5315 65.8 12.5326H53.2663C52.4354 12.5315 51.6381 12.862 51.0506 13.4495C50.4631 14.037 50.1326 14.8343 50.1337 15.6652V46.9994C50.1326 47.8303 50.4631 48.6277 51.0506 49.2152C51.6381 49.8037 52.4354 50.1331 53.2663 50.1331H65.8C66.6309 50.1331 67.4282 49.8037 68.0157 49.2152C68.6043 48.6277 68.9337 47.8303 68.9337 46.9994V31.3331H81.4674V34.4668L81.4663 34.4658C81.4663 35.2977 81.7958 36.095 82.3843 36.6825C82.9718 37.27 83.7691 37.5995 84.6 37.5995H94V106.534H84.6C83.7691 106.533 82.9718 106.863 82.3843 107.451C81.7958 108.038 81.4663 108.835 81.4663 109.666V112.8H68.9337V97.1337C68.9337 96.3018 68.6043 95.5045 68.0157 94.917C67.4282 94.3295 66.6309 94 65.8 94L65.8 94ZM62.6663 111.503L56.4 117.77V114.097L62.6663 107.83V111.503ZM61.3696 100.266L56.4 105.236V100.266H61.3696ZM57.6966 125.334L62.6663 120.364V125.334H57.6966ZM131.599 114.097L137.866 107.83V111.503L131.599 117.77V114.097ZM132.896 125.334L137.866 120.364V125.334H132.896ZM136.568 100.267L131.599 105.236V100.266L136.568 100.267ZM137.866 30.036L131.599 36.3023V32.6304L137.866 26.364V30.036ZM132.896 43.8663L137.866 38.8967V43.8663H132.896ZM136.569 18.8L131.599 23.7696V18.8H136.569ZM62.6663 30.036L56.4 36.3023V32.6304L62.6663 26.364V30.036ZM61.3696 18.8L56.4 23.7696V18.8H61.3696ZM57.6966 43.8663L62.6663 38.8967V43.8663H57.6966Z" fill="black"/>
</svg>
