<svg width="50" height="50" viewBox="0 0 188 188" fill="none" xmlns="http://www.w3.org/2000/svg">
<path d="M60.0499 20.101L32.712 47.4388L36.6796 51.4064L64.0202 24.0659L60.0499 20.101ZM68.8352 28.884L41.4946 56.2219L43.6201 58.3453L70.958 31.0074L68.8352 28.884ZM65.434 25.4839L38.0961 52.8245L40.2216 54.95L67.5595 27.6094L65.434 25.4839ZM131.492 99.6983C131.495 99.6951 131.501 99.6951 131.503 99.692L131.683 99.5126C132.141 99.0541 132.138 98.3135 131.683 97.8518L128.933 95.1052C128.507 94.6792 127.843 94.6645 127.386 95.0349C125.635 93.756 123.666 92.9199 121.625 92.5317L121.643 92.5107C121.543 92.5107 121.428 92.4929 121.323 92.4866C120.894 92.4132 120.466 92.3607 120.034 92.3261C108.313 90.0516 83.8731 65.1467 76.9386 57.8603C81.3332 55.0497 86.4635 54.0826 91.1246 55.0392L93.0602 53.1047L72.5144 32.5662L45.1766 59.9041L65.7201 80.4445L67.6547 78.512C66.6528 73.6253 67.7522 68.2244 70.8829 63.6933C94.9652 88.0326 102.631 103.112 104.567 107.61C104.74 110.266 105.652 112.88 107.291 115.13C106.933 115.592 106.947 116.246 107.37 116.669L110.117 119.416C110.576 119.877 111.318 119.877 111.778 119.416L111.951 119.246C117.421 122.278 124.445 121.484 129.089 116.839C133.731 112.194 134.525 105.17 131.493 99.6969L131.492 99.6983ZM71.5977 58.9909C69.1732 61.4164 65.239 61.4164 62.8146 58.9909C60.3901 56.5654 60.3901 52.6333 62.8156 50.2057C65.2401 47.7812 69.1733 47.7812 71.5977 50.2088C74.0211 52.6343 74.0211 56.5643 71.5977 58.9908L71.5977 58.9909ZM108.733 96.4942C108.32 96.9076 107.946 97.3451 107.593 97.7951C101.752 90.935 85.5362 74.1912 73.7419 62.3813C73.9769 62.1494 74.5371 61.6008 74.7785 61.3658C75.4614 62.0603 76.5168 63.1314 77.8176 64.4428L79.6137 66.2462C82.4799 69.1145 85.2569 71.8454 87.8575 74.3557C93.5971 79.8982 105.538 91.4342 110.047 95.3411C109.594 95.6999 109.15 96.0755 108.734 96.4951L108.733 96.4942ZM125.58 113.341C122.032 116.889 116.273 116.889 112.722 113.335C109.171 109.787 109.171 104.031 112.719 100.48C116.273 96.9319 122.033 96.9287 125.583 100.477C129.133 104.029 129.13 109.79 125.58 113.341L125.58 113.341ZM63.5585 50.9464C61.5401 52.9617 61.539 56.2348 63.5554 58.2502C65.5707 60.2645 68.8438 60.2624 70.8573 58.247C72.8716 56.2348 72.8737 52.9615 70.8573 50.9462C68.8441 48.9309 65.5707 48.9319 63.5586 50.9462L63.5585 50.9464ZM70.044 57.431C68.4766 58.9984 65.94 58.9984 64.3726 57.4321C62.8084 55.8647 62.8094 53.3291 64.3726 51.7617C65.9378 50.1986 68.4737 50.1986 70.04 51.7649C71.6031 53.3312 71.6063 55.866 70.0442 57.4312L70.044 57.431Z" fill="black"/>
<path d="M80.0504 97.8057C79.6937 97.3504 79.316 96.9097 78.8953 96.4869C78.4819 96.0767 78.0455 95.7001 77.5955 95.3465C80.0305 93.2724 83.7243 89.8798 87.9868 85.852L84.4062 82.2714C75.8549 88.4875 70.2369 91.2613 67.7778 92.3176C65.1205 92.4938 62.5061 93.4024 60.2568 95.0412C59.7962 94.6834 59.1405 94.6971 58.7198 95.1209L55.9702 97.8705C55.5117 98.329 55.5117 99.0697 55.9702 99.5313L56.1412 99.7012C53.1061 105.171 53.9034 112.198 58.5478 116.839C63.1955 121.487 70.2191 122.279 75.6924 119.249C75.6934 119.252 75.6934 119.255 75.6986 119.261L75.878 119.44C76.3334 119.895 77.0751 119.895 77.5336 119.437L80.281 116.69C80.708 116.261 80.7217 115.597 80.3566 115.143C81.6333 113.392 82.4653 111.421 82.8566 109.379L82.8776 109.403C82.8776 109.301 82.8975 109.185 82.9017 109.08C82.972 108.651 83.0307 108.223 83.0612 107.791C83.912 103.405 87.9312 97.242 93.0099 90.8801L89.6253 87.4955C85.6722 91.6436 81.9533 95.605 80.0502 97.8052L80.0504 97.8057ZM74.915 113.337C71.3626 116.888 65.602 116.888 62.051 113.337C58.4997 109.785 58.5029 104.03 62.0541 100.479C65.6022 96.9274 71.3607 96.9245 74.9098 100.476C78.4612 104.028 78.4641 109.789 74.9151 113.337L74.915 113.337Z" fill="black"/>
<path d="M117.143 58.613C119.158 60.6252 122.428 60.6273 124.445 58.613C126.457 56.5977 126.457 53.3246 124.445 51.3122C122.426 49.2968 119.156 49.2958 117.14 51.3111C115.128 53.3254 115.128 56.5945 117.143 58.613L117.143 58.613ZM117.959 52.1284C119.522 50.5631 122.06 50.5641 123.629 52.1294C125.193 53.6936 125.189 56.2294 123.623 57.7936C122.058 59.3588 119.522 59.3609 117.959 57.7978C116.394 56.2304 116.394 53.6927 117.959 52.1285L117.959 52.1284Z" fill="black"/>
<path d="M147.776 55.3149L120.438 27.9771L122.564 25.8516L149.902 53.1894L147.776 55.3149Z" fill="black"/>
<path d="M94.9401 53.4726L96.8746 55.4071C101.762 54.4073 107.162 55.5068 111.692 58.6372C106.102 64.1692 101.008 68.8252 96.4119 72.7549L98.9727 75.3179C103.831 70.597 108.74 65.7616 113.005 61.4991C113.24 61.731 113.788 62.2922 114.024 62.5335C113.328 63.2197 112.259 64.274 110.945 65.5748L109.142 67.3709C106.275 70.2393 103.543 73.012 101.033 75.6158C100.763 75.8959 100.467 76.2043 100.167 76.5117L103.017 79.3591C108.951 72.9701 114.63 67.4455 117.525 64.6905C120.336 69.0862 121.303 74.2154 120.345 78.8776L122.281 80.8131L142.819 60.2685L115.481 32.9306L94.9401 53.4726ZM125.184 50.5728C127.607 52.9962 127.607 56.9283 125.181 59.3527C122.757 61.7771 118.823 61.7771 116.401 59.3527C113.975 56.9271 113.975 52.994 116.401 50.5706C118.825 48.1451 122.755 48.1451 125.184 50.5727L125.184 50.5728Z" fill="black"/>
<path d="M123.983 24.4389L127.95 20.4713L155.293 47.8065L151.327 51.7741L123.983 24.4389Z" fill="black"/>
<path d="M144.381 58.7124L117.043 31.3745L119.169 29.249L146.507 56.5869L144.381 58.7124Z" fill="black"/>
</svg>
