<svg width="50" height="50" viewBox="0 0 350 350" fill="none" xmlns="http://www.w3.org/2000/svg">
<path d="M240.325 145.82C233.782 141.945 210.651 155.418 210.286 160.871C209.936 166.127 234.151 171.379 240.325 167.26C246.501 163.142 246.868 149.697 240.325 145.82V145.82Z" fill="#A39D9D"/>
<path d="M207.15 93.9351H176.322H145.494C114.666 93.9351 115.693 126.822 115.693 126.822H236.953C236.949 126.822 237.978 93.9351 207.148 93.9351H207.15Z" fill="#A39D9D"/>
<path d="M112.32 145.82C105.777 149.695 106.146 163.141 112.32 167.26C118.497 171.379 142.71 166.125 142.359 160.871C141.992 155.42 118.863 141.944 112.32 145.82V145.82Z" fill="#A39D9D"/>
<path d="M271.78 45.5195C215.09 9.26154 175 57.949 175 57.949C175 57.949 134.906 9.25954 78.22 45.5175C21.53 81.7775 43.9975 212.018 175 247.903C306.005 212.018 328.47 81.7775 271.78 45.5175V45.5195ZM250.553 129.395L249.786 131.725C252.317 135 254.762 140.324 254.762 148.738V165.191C254.762 165.191 256.403 168.164 251.339 171.556V185.181C251.339 190.548 246.987 194.9 241.622 194.9H230.573C225.206 194.9 220.854 190.549 220.854 185.181V179.316C209.867 180.515 195.387 181.281 176.323 181.281C157.258 181.281 142.778 180.513 131.792 179.316V185.181C131.792 190.548 127.44 194.9 122.073 194.9H111.024C105.657 194.9 101.307 190.549 101.307 185.181V171.556C96.2421 168.166 97.8788 165.191 97.8788 165.191V148.738C97.8788 140.322 100.324 135.002 102.857 131.725L102.094 129.395C102.094 129.395 85.3947 130.383 85.3947 121.457C85.3947 112.533 104.561 116.893 104.561 116.893V124.131L108.422 125.399C108.569 120.664 109.828 106.66 119.418 96.7657C125.928 90.0487 134.701 86.6447 145.498 86.6447H207.153C217.95 86.6447 226.722 90.049 233.233 96.7657C242.823 106.658 244.081 120.66 244.229 125.399L248.09 124.131V116.893C248.09 116.893 267.256 112.533 267.256 121.457C267.249 130.383 250.551 129.395 250.551 129.395H250.553Z" fill="#A39D9D"/>
</svg>
