<svg width="50" height="50" viewBox="0 0 188 188" fill="none" xmlns="http://www.w3.org/2000/svg">
<path d="M141 12.5337H128.466C127.635 12.5326 126.838 12.8631 126.251 13.4506C125.663 14.0381 125.333 14.8354 125.334 15.6663V25.0663H68.9337V15.6663C68.9337 14.8354 68.6043 14.0381 68.0157 13.4506C67.4282 12.8631 66.6309 12.5326 65.8 12.5337H53.2663C52.4354 12.5326 51.6381 12.8631 51.0506 13.4506C50.4631 14.0381 50.1326 14.8354 50.1337 15.6663V47.0006C50.1326 47.8315 50.4631 48.6288 51.0506 49.2163C51.6381 49.8048 52.4354 50.1343 53.2663 50.1343H65.8C66.6309 50.1343 67.4282 49.8048 68.0157 49.2163C68.6043 48.6288 68.9337 47.8315 68.9337 47.0006V31.3343H81.4674V34.468L81.4663 34.4669C81.4663 35.2989 81.7958 36.0962 82.3843 36.6837C82.9718 37.2712 83.7691 37.6006 84.6 37.6006H94V112.801H68.9337V97.1343C68.9337 96.3023 68.6043 95.505 68.0157 94.9175C67.4282 94.33 66.6309 94.0006 65.8 94.0006H53.2663C52.4354 94.0006 51.6381 94.33 51.0506 94.9175C50.4631 95.505 50.1326 96.3023 50.1337 97.1343V128.469V128.467C50.1326 129.299 50.4631 130.097 51.0506 130.684C51.6381 131.272 52.4354 131.601 53.2663 131.601H65.8C66.6309 131.601 67.4282 131.272 68.0157 130.684C68.6043 130.097 68.9337 129.299 68.9337 128.467V119.067H125.334V128.467C125.333 129.299 125.663 130.097 126.251 130.684C126.838 131.272 127.635 131.601 128.466 131.601H141C141.831 131.601 142.628 131.272 143.216 130.684C143.804 130.097 144.134 129.299 144.134 128.467V97.1333V97.1343C144.134 96.3023 143.804 95.505 143.216 94.9175C142.628 94.33 141.831 94.0006 141 94.0006H128.466C127.635 94.0006 126.838 94.33 126.251 94.9175C125.663 95.505 125.333 96.3023 125.334 97.1343V112.801H100.266V37.6006H109.666C110.498 37.6006 111.296 37.2712 111.883 36.6837C112.471 36.0962 112.8 35.2989 112.8 34.4669V31.3343H125.334V47.0006C125.333 47.8315 125.663 48.6288 126.251 49.2163C126.838 49.8049 127.635 50.1343 128.466 50.1343H141C141.831 50.1343 142.628 49.8049 143.216 49.2163C143.804 48.6288 144.134 47.8315 144.134 47.0006V15.6664C144.134 14.8355 143.804 14.0381 143.216 13.4506C142.628 12.8631 141.831 12.5327 141 12.5337L141 12.5337ZM62.6658 30.036L56.3995 36.3023V32.6304L62.6658 26.3641V30.036ZM61.3691 18.8L56.3995 23.7697V18.8H61.3691ZM57.6961 43.8663L62.6658 38.8967V43.8663H57.6961ZM62.6658 125.335H56.3995V100.267H62.6658V125.335ZM131.6 100.268H137.866V125.335H131.6V100.267V100.268ZM137.866 30.037L131.6 36.3033V32.6314L137.866 26.3651V30.037ZM136.57 18.8011L131.6 23.7707V18.8011H136.57ZM132.897 43.8674L137.866 38.8977V43.8674H132.897Z" fill="black"/>
</svg>
