<svg width="50" height="50" viewBox="0 0 188 188" fill="none" xmlns="http://www.w3.org/2000/svg">
<path d="M80.1579 2.35001H105.883C107.186 2.35001 108.242 3.65301 108.242 4.70946V16.193C108.242 17.496 107.186 18.5525 105.883 18.5525H80.1579C78.8549 18.5525 77.7985 17.2495 77.7985 16.193V4.70946C77.7985 3.40646 78.8549 2.35001 80.1579 2.35001V2.35001Z" fill="black"/>
<path d="M86.7111 26.5362V58.182C86.7111 60.3096 87.8462 62.2745 89.6874 63.3383C91.5296 64.4021 93.7989 64.4021 95.6411 63.3383C97.4833 62.2745 98.6174 60.3096 98.6174 58.182V26.6759C98.7128 25.503 98.9772 24.3489 99.4042 23.2516H85.9778C86.3859 24.3028 86.6324 25.4107 86.7111 26.5354L86.7111 26.5362Z" fill="black"/>
<path d="M113.477 6.4551H112.938V14.4483H113.477C114.208 14.4483 114.91 14.1577 115.427 13.6405C115.943 13.1233 116.234 12.4214 116.234 11.6902V9.21223C116.234 7.68892 115 6.45508 113.477 6.45508L113.477 6.4551Z" fill="black"/>
<path d="M128.334 50.3464C128.264 49.0077 127.682 47.7478 126.709 46.8257C125.738 45.9035 124.448 45.3895 123.108 45.3895H103.327V57.1016H106.197L106.765 72.7491H89.4031V104.027H107.238L108.381 135.315H89.403V119.693H73.7367L73.3108 119.267L76.0394 57.1065H81.9931L81.9921 45.39H64.8905C63.5498 45.39 62.2604 45.9041 61.289 46.8263C60.3165 47.7484 59.7342 49.0084 59.6639 50.347L54.7636 142.539C54.687 143.975 55.2031 145.377 56.1914 146.419C57.1797 147.462 58.554 148.051 59.9903 148.051H128.009C129.445 148.051 130.819 147.462 131.808 146.419C132.796 145.377 133.312 143.975 133.236 142.539L128.334 50.3464ZM110.897 63.1119V63.1108C110.897 61.8131 111.949 60.7608 113.247 60.7608H118.07C119.367 60.7608 120.42 61.8131 120.42 63.1108C120.42 64.4096 119.367 65.4608 118.07 65.4608H113.247C112.624 65.4608 112.026 65.2132 111.585 64.7726C111.145 64.332 110.897 63.735 110.897 63.1108V63.1119ZM111.859 79.2734C111.859 77.9757 112.911 76.9234 114.209 76.9234H119.034C120.333 76.9234 121.384 77.9757 121.384 79.2734C121.384 80.5712 120.333 81.6234 119.034 81.6234H114.215C113.591 81.6245 112.992 81.3779 112.549 80.9373C112.108 80.4956 111.859 79.8976 111.859 79.2734H111.859ZM112.827 95.4318C112.827 94.134 113.88 93.0818 115.177 93.0818H120.005C121.303 93.0818 122.355 94.134 122.355 95.4318C122.355 96.7295 121.303 97.7818 120.005 97.7818H115.184C114.56 97.7818 113.96 97.5331 113.52 97.0914C113.079 96.6487 112.832 96.0497 112.834 95.4255L112.827 95.4318ZM113.793 111.587C113.793 110.289 114.845 109.237 116.143 109.237H120.964C122.262 109.237 123.314 110.289 123.314 111.587C123.314 112.885 122.262 113.937 120.964 113.937H116.149C115.524 113.937 114.925 113.688 114.485 113.247C114.043 112.805 113.797 112.205 113.799 111.581L113.793 111.587ZM121.939 130.092H117.117C115.819 130.092 114.767 129.041 114.767 127.742C114.767 126.444 115.819 125.392 117.117 125.392H121.939C123.237 125.392 124.289 126.444 124.289 127.742C124.289 129.041 123.237 130.092 121.939 130.092Z" fill="black"/>
</svg>
