<svg width="35" height="35" viewBox="0 0 76 76" fill="none" xmlns="http://www.w3.org/2000/svg">
<path d="M38 7.11456C30.4807 7.11487 23.2068 9.79076 17.4799 14.6634C11.753 19.5361 7.94676 26.2875 6.74226 33.7098C5.53776 41.132 7.01359 48.7406 10.9057 55.1743C14.7978 61.6079 20.8521 66.4468 27.9855 68.8249C29.5688 69.1021 30.1626 68.1521 30.1626 67.3208C30.1626 66.5687 30.123 64.0749 30.123 61.4229C22.1667 62.8874 20.1083 59.4834 19.475 57.7021C18.7722 55.9697 17.6582 54.4345 16.2292 53.2291C15.1208 52.6354 13.5375 51.1708 16.1896 51.1313C17.2022 51.2412 18.1735 51.5935 19.021 52.1585C19.8685 52.7236 20.5674 53.4845 21.0583 54.377C21.4914 55.1551 22.0738 55.84 22.7721 56.3926C23.4704 56.9452 24.2708 57.3546 25.1276 57.5972C25.9844 57.8399 26.8806 57.9112 27.765 57.8069C28.6493 57.7026 29.5044 57.4248 30.2812 56.9895C30.4183 55.3797 31.1357 53.8745 32.3 52.7542C25.2542 51.9626 17.8917 49.2312 17.8917 37.1188C17.8472 33.9716 19.0085 30.9266 21.1375 28.6084C20.1694 25.8731 20.2827 22.8713 21.4542 20.2167C21.4542 20.2167 24.1062 19.3855 30.1625 23.4626C35.3441 22.0375 40.8143 22.0375 45.9958 23.4626C52.052 19.3459 54.7042 20.2167 54.7042 20.2167C55.8758 22.8713 55.9891 25.8731 55.0208 28.6084C57.1562 30.9227 58.3186 33.9703 58.2667 37.1188C58.2667 49.2708 50.8645 51.9626 43.8188 52.7542C44.5745 53.5202 45.1565 54.4398 45.5253 55.4507C45.8942 56.4615 46.0411 57.5399 45.9563 58.6126C45.9563 62.848 45.9166 66.2521 45.9166 67.3209C45.9166 68.1522 46.5104 69.1417 48.0937 68.8251C55.2145 66.4275 61.2515 61.5773 65.127 55.1404C69.0025 48.7034 70.4643 41.0987 69.2514 33.6836C68.0386 26.2686 64.2301 19.5259 58.5056 14.6592C52.7812 9.79246 45.5136 7.11847 38 7.11456V7.11456Z" fill="black"/>
</svg>
