<svg width="52.5" height="52.5" viewBox="0 0 105 105" fill="none" xmlns="http://www.w3.org/2000/svg">
<path d="M92.4312 24.8834L56.2201 3.87932C53.9388 2.57994 50.9504 2.57994 48.6511 3.87932L12.157 24.8834C9.80355 26.2378 8.20312 28.7832 8.20312 31.5058V73.4582C8.20312 76.1808 9.83719 78.7271 12.1915 80.0888L21.8129 85.5751C26.4288 87.849 27.7077 87.849 29.8077 87.849C36.6442 87.849 40.1945 83.7154 40.1945 76.5057V35.0881C40.1953 34.5032 40.5603 33.6329 39.9853 33.6329H35.3735C34.7895 33.6329 33.6328 34.5032 33.6328 35.0873V76.5049C33.6328 79.7008 30.6666 82.8811 25.264 80.1799L15.3202 74.427C14.974 74.2383 14.7656 73.8585 14.7656 73.4582V31.5058C14.7656 31.1104 15.1454 30.7134 15.4965 30.5108L51.9003 9.54275C52.2408 9.34998 52.7223 9.34998 53.0611 9.54275L89.1245 30.5058C89.4698 30.7134 89.4149 31.0981 89.4149 31.5058V73.4582C89.4149 73.8585 89.4903 74.2482 89.1499 74.441L52.9471 95.4213C52.637 95.6075 52.2334 95.6075 51.893 95.4213L42.6095 89.885C42.3298 89.7226 41.9926 89.6643 41.7236 89.8144C39.1437 91.277 38.6646 91.4715 36.2447 92.3106C35.6483 92.5182 34.7689 92.8783 36.5794 93.893L48.7184 101.074C49.8799 101.747 51.2014 102.096 52.5303 102.096C53.8773 102.096 55.1955 101.747 56.3579 101.074L92.432 80.0888C94.7871 78.7172 95.9774 76.1808 95.9774 73.4582V31.5058C95.9766 28.7832 94.7863 26.2443 92.4312 24.8834ZM63.7604 66.8104C54.1406 66.8104 52.0226 64.1567 51.3163 59.3735C51.2326 58.8583 50.7962 58.2422 50.2712 58.2422H45.5708C44.9892 58.2422 44.5208 58.9477 44.5208 59.5269C44.5208 65.6513 47.8513 73.0719 63.7604 73.0719C75.276 73.0719 81.8795 68.5971 81.8795 60.6778C81.8795 52.8257 76.5745 50.7651 65.406 49.2869C54.1168 47.7947 52.97 47.0409 52.97 44.3962C52.97 42.2158 53.9413 39.3078 62.3003 39.3078C69.7684 39.3078 72.5214 40.9107 73.6542 45.9449C73.7518 46.4183 74.1841 46.7579 74.6722 46.7579H79.3923C79.6827 46.7579 79.9591 46.6406 80.1626 46.433C80.3603 46.2099 80.4636 45.9302 80.4382 45.6299C79.7057 36.9601 73.9471 32.92 62.2994 32.92C51.9373 32.92 45.757 37.2956 45.757 44.63C45.757 52.5854 51.9069 54.7838 61.8532 55.7674C73.7518 56.9338 74.6771 58.6729 74.6771 61.0133C74.6771 65.0787 71.4139 66.8104 63.7604 66.8104Z" fill="#83CD29"/>
</svg>
