<svg width="29" height="29" viewBox="0 0 29 29" fill="none" xmlns="http://www.w3.org/2000/svg">
<g clip-path="url(#clip0_229_9)">
<path d="M22.39 0H6.48C2.90119 0 0 2.90119 0 6.48V22.39C0 25.9688 2.90119 28.87 6.48 28.87H22.39C25.9688 28.87 28.87 25.9688 28.87 22.39V6.48C28.87 2.90119 25.9688 0 22.39 0Z" fill="#0B86CA"/>
<path d="M7.99995 11.9999H10.9999V21.6799H7.99995V11.9999ZM9.52995 7.18994C9.87366 7.18995 10.2097 7.29175 10.4956 7.4825C10.7815 7.67326 11.0045 7.94442 11.1365 8.26178C11.2685 8.57914 11.3035 8.92849 11.2372 9.26574C11.1709 9.60299 11.0061 9.91304 10.7638 10.1568C10.5215 10.4005 10.2124 10.567 9.87549 10.6353C9.53863 10.7035 9.18909 10.6705 8.87098 10.5403C8.55286 10.4102 8.28043 10.1887 8.08804 9.90389C7.89565 9.61907 7.79192 9.28365 7.78995 8.93994C7.78863 8.7106 7.83266 8.48326 7.91951 8.271C8.00637 8.05874 8.13433 7.86574 8.29603 7.70311C8.45774 7.54047 8.65 7.41141 8.86176 7.32334C9.07352 7.23527 9.3006 7.18994 9.52995 7.18994V7.18994ZM12.9199 11.9999H15.8099V13.3199C16.0992 12.8262 16.5172 12.4204 17.0191 12.1456C17.521 11.8709 18.0882 11.7376 18.6599 11.7599C21.6599 11.7599 22.2699 13.7599 22.2699 16.3699V21.6799H19.2699V16.9999C19.2699 15.8799 19.2699 14.4299 17.7099 14.4299C16.1499 14.4299 15.9099 15.6499 15.9099 16.9099V21.6999H12.9099L12.9199 11.9999Z" fill="white"/>
</g>
<defs>
<clipPath id="clip0_229_9">
<rect width="28.87" height="28.87" fill="white"/>
</clipPath>
</defs>
</svg>
