<svg width="231" height="86" viewBox="0 0 231 86" fill="none" xmlns="http://www.w3.org/2000/svg">
<path d="M89.0689 46V23.56H106.545V28.082H94.9169V32.638H104.165V36.888H94.9169V41.478H106.987V46H89.0689ZM114.428 29L118.576 36.65L120.48 36.48L127.178 46H120.548L116.264 38.248H114.258L107.764 29H114.428ZM127.042 29L120.616 38.18L118.474 38.044L114.02 46H107.526L114.36 36.412L116.332 36.684L120.548 29H127.042ZM136.864 28.66C138.654 28.66 140.218 29.0113 141.556 29.714C142.916 30.394 143.97 31.4027 144.718 32.74C145.488 34.0547 145.874 35.6413 145.874 37.5C145.874 39.3587 145.488 40.9567 144.718 42.294C143.97 43.6087 142.916 44.6173 141.556 45.32C140.218 46 138.654 46.34 136.864 46.34C135.118 46.34 133.566 46 132.206 45.32C130.846 44.6173 129.78 43.6087 129.01 42.294C128.262 40.9567 127.888 39.3587 127.888 37.5C127.888 35.6413 128.262 34.0547 129.01 32.74C129.78 31.4027 130.846 30.394 132.206 29.714C133.566 29.0113 135.118 28.66 136.864 28.66ZM136.864 32.774C136.206 32.774 135.64 32.9327 135.164 33.25C134.688 33.5673 134.325 34.0773 134.076 34.78C133.826 35.4827 133.702 36.3893 133.702 37.5C133.702 38.6107 133.826 39.5173 134.076 40.22C134.325 40.9 134.688 41.41 135.164 41.75C135.64 42.0673 136.206 42.226 136.864 42.226C137.544 42.226 138.122 42.0673 138.598 41.75C139.074 41.41 139.436 40.9 139.686 40.22C139.935 39.5173 140.06 38.6107 140.06 37.5C140.06 36.3893 139.935 35.4827 139.686 34.78C139.436 34.0773 139.074 33.5673 138.598 33.25C138.122 32.9327 137.544 32.774 136.864 32.774ZM155.551 23.594V39.948C155.551 40.764 155.744 41.3533 156.129 41.716C156.537 42.056 157.092 42.226 157.795 42.226C158.339 42.226 158.804 42.1693 159.189 42.056C159.597 41.92 159.96 41.7273 160.277 41.478L160.889 45.048C160.322 45.456 159.608 45.7733 158.747 46C157.886 46.2267 157.002 46.34 156.095 46.34C154.803 46.34 153.681 46.1587 152.729 45.796C151.8 45.4333 151.074 44.8553 150.553 44.062C150.054 43.2687 149.794 42.2147 149.771 40.9V25.192L155.551 23.594ZM160.617 29V33.114H146.847V29H160.617ZM172.392 35.222C172.392 34.4287 172.165 33.8053 171.712 33.352C171.281 32.876 170.692 32.638 169.944 32.638C169.196 32.638 168.55 32.8307 168.006 33.216C167.484 33.5787 167.122 34.236 166.918 35.188L162.022 34.032C162.339 32.4 163.178 31.0967 164.538 30.122C165.898 29.1473 167.813 28.66 170.284 28.66C171.938 28.66 173.344 28.9093 174.5 29.408C175.678 29.884 176.574 30.6093 177.186 31.584C177.82 32.536 178.138 33.7147 178.138 35.12V41.342C178.138 42.226 178.534 42.668 179.328 42.668C179.736 42.668 180.064 42.6227 180.314 42.532L179.974 45.83C179.294 46.1473 178.466 46.306 177.492 46.306C176.608 46.306 175.826 46.17 175.146 45.898C174.466 45.6033 173.933 45.1727 173.548 44.606C173.162 44.0167 172.97 43.28 172.97 42.396V42.192L173.616 41.954C173.616 42.9287 173.321 43.7447 172.732 44.402C172.165 45.0593 171.417 45.5467 170.488 45.864C169.581 46.1813 168.629 46.34 167.632 46.34C166.476 46.34 165.467 46.1587 164.606 45.796C163.744 45.4333 163.076 44.912 162.6 44.232C162.146 43.5293 161.92 42.668 161.92 41.648C161.92 40.424 162.282 39.4153 163.008 38.622C163.756 37.806 164.923 37.2393 166.51 36.922L172.936 35.596L172.902 38.656L169.638 39.336C168.958 39.472 168.448 39.676 168.108 39.948C167.79 40.1973 167.632 40.5827 167.632 41.104C167.632 41.6027 167.813 41.9767 168.176 42.226C168.538 42.4753 168.969 42.6 169.468 42.6C169.853 42.6 170.216 42.5433 170.556 42.43C170.918 42.3167 171.236 42.1467 171.508 41.92C171.78 41.6707 171.995 41.3647 172.154 41.002C172.312 40.6393 172.392 40.2087 172.392 39.71V35.222ZM187.627 21.792V40.22C187.627 40.968 187.752 41.5007 188.001 41.818C188.251 42.1353 188.67 42.294 189.259 42.294C189.599 42.294 189.883 42.2713 190.109 42.226C190.336 42.1807 190.608 42.1127 190.925 42.022L190.551 45.49C190.143 45.7393 189.611 45.9433 188.953 46.102C188.296 46.2607 187.65 46.34 187.015 46.34C185.202 46.34 183.887 45.9207 183.071 45.082C182.255 44.2433 181.847 42.872 181.847 40.968V21.792H187.627ZM199.498 46.34C197.798 46.34 196.212 46.068 194.738 45.524C193.288 44.9573 192.086 44.1527 191.134 43.11L193.854 39.914C194.421 40.6393 195.169 41.2513 196.098 41.75C197.05 42.226 198.104 42.464 199.26 42.464C199.963 42.464 200.541 42.362 200.994 42.158C201.448 41.954 201.674 41.6367 201.674 41.206C201.674 40.8887 201.561 40.6393 201.334 40.458C201.108 40.254 200.654 40.084 199.974 39.948L197.594 39.472C195.464 39.0413 193.945 38.4067 193.038 37.568C192.154 36.7067 191.712 35.5847 191.712 34.202C191.712 33.2727 191.996 32.3887 192.562 31.55C193.129 30.6887 194.002 29.9973 195.18 29.476C196.359 28.932 197.866 28.66 199.702 28.66C201.425 28.66 202.944 28.9093 204.258 29.408C205.573 29.9067 206.616 30.632 207.386 31.584L204.632 34.712C204.088 34.032 203.386 33.4993 202.524 33.114C201.663 32.7287 200.802 32.536 199.94 32.536C199.396 32.536 198.932 32.5927 198.546 32.706C198.184 32.7967 197.912 32.9327 197.73 33.114C197.549 33.2953 197.458 33.522 197.458 33.794C197.458 34.0887 197.594 34.3493 197.866 34.576C198.161 34.78 198.694 34.9613 199.464 35.12L202.558 35.732C204.304 36.0493 205.562 36.6273 206.332 37.466C207.103 38.3047 207.488 39.3133 207.488 40.492C207.488 41.6027 207.194 42.6 206.604 43.484C206.015 44.368 205.131 45.0707 203.952 45.592C202.774 46.0907 201.289 46.34 199.498 46.34Z" fill="#4480A6"/>
<path d="M40.103 32.6616H45.8965C45.8965 32.6616 46.5482 32.4442 46.6207 31.7925C46.8381 31.4301 46.9105 30.9233 46.9105 30.9233H42.348L39.0165 30.9238C39.0165 30.9238 39.0889 31.4306 39.3063 31.7929C39.4513 32.4447 40.103 32.6616 40.103 32.6616H40.103Z" fill="black"/>
<path d="M35.6851 35.9934C35.3952 35.8485 35.1783 35.7036 34.9609 35.4867C34.2367 34.6175 34.2367 34.5451 34.2367 34.5451C34.3816 34.8349 34.4541 35.0519 34.5266 35.1968C34.7435 35.5586 35.1778 35.8485 35.6851 35.9934H35.6851Z" fill="black"/>
<path d="M40.103 34.545C40.1755 34.6175 41.7688 34.6175 42.9997 34.545C44.1582 34.545 45.824 34.6175 45.8965 34.545C46.0414 34.4001 47.1999 31.9376 47.1999 31.9376L45.9688 34.255L45.7514 34.4724H40.2478L40.0304 34.255L38.7994 31.9376C38.8714 32.0101 40.0304 34.4725 40.1028 34.545H40.103Z" fill="black"/>
<path d="M15.5525 24.8405C16.1317 24.913 16.4941 25.3473 16.7835 25.3473C16.9285 25.3473 17.1459 25.1299 17.3628 24.9129V24.5506C17.2903 24.5506 17.1454 24.6231 16.9285 24.6231C16.4941 24.6231 16.856 24.1888 16.7835 24.1163C16.7111 24.0438 16.2767 24.4062 15.9869 24.2612C15.697 24.1163 16.1318 23.7544 16.4212 23.3196C16.6386 22.8853 16.3487 22.7404 15.7695 22.5955C15.1902 22.3781 13.6693 22.7404 13.3795 23.0298C13.1621 23.2472 14.8279 24.3332 14.8279 24.3332C14.8279 24.3332 15.0453 24.623 14.7554 24.4781C14.4656 24.3332 14.8279 24.623 14.8279 24.623C14.8279 24.623 14.9728 24.6955 14.8279 24.6955C14.8279 24.6955 14.8279 24.623 14.7554 24.623C14.538 24.5506 13.452 24.0438 13.3071 23.7539C13.0901 23.4641 12.366 23.8989 12.221 23.8989C12.1486 23.8989 12.9452 24.0438 13.0901 24.1887C13.2351 24.3337 12.6558 24.1887 12.5834 24.3337C12.5109 24.4061 12.149 24.696 11.9316 24.8405C11.9316 24.9129 12.0041 25.0578 12.0766 25.1303C12.1486 25.2023 12.221 25.2748 12.2935 25.3472C12.5109 25.3472 12.8003 25.2748 12.8727 25.1298C13.0177 24.9124 13.9593 24.9849 14.4661 24.9849C14.9733 24.9849 14.9009 24.768 15.5526 24.8405L15.5525 24.8405Z" fill="black"/>
<path d="M10.7001 36.5721C10.5552 37.2963 10.4828 44.9005 10.4103 46.0595C10.7726 46.2045 11.4243 46.6388 11.4968 46.7112C11.6417 46.8562 11.2794 38.6727 11.1345 37.5863C10.99 36.5722 10.8451 35.7756 10.7001 36.5722V36.5721Z" fill="black"/>
<path d="M33.6579 42.3661H33.0062C32.7888 42.3661 32.5719 42.5835 32.5719 42.8004V46.7112C32.5719 46.9286 32.7893 47.1455 33.0062 47.1455H33.6579C33.8753 47.1455 34.0923 46.9281 34.0923 46.7112V42.8004C34.0928 42.583 33.8754 42.3661 33.6579 42.3661Z" fill="black"/>
<path d="M27.719 42.3661H16.9282C16.1316 42.3661 15.6972 42.8729 15.6972 43.6695V46.9285C15.6972 47.7251 16.3489 48.3044 17.0731 48.3044L27.7189 48.6667C28.5156 48.6667 28.9499 48.2324 28.9499 47.4357V43.8872C28.9499 43.1625 28.5156 42.3658 27.7189 42.3658L27.719 42.3661Z" fill="black"/>
<path d="M27.719 35.4136L26.2707 30.9235C26.2707 30.9235 25.8363 29.9095 25.8363 30.0544C25.7639 30.1993 25.8363 30.7061 25.8363 30.7061C25.8363 30.7061 25.1846 30.5612 23.9532 30.3438C22.7222 30.1264 19.6806 29.5471 16.9282 29.5471C16.9282 29.5471 15.6972 29.4747 14.5383 29.837L13.0899 30.3438C13.0899 30.3438 13.2348 33.8198 14.7557 34.5444C16.2766 35.2686 17.6525 35.1237 17.6525 35.1237L24.1701 35.4135C24.1706 35.4135 26.1258 35.486 27.7191 35.4135L27.719 35.4136ZM21.8531 34.3995C20.9115 33.7478 20.9115 32.5889 20.9115 32.5889C20.9115 31.213 22.07 30.7782 22.2149 30.7057C22.2874 30.6332 22.1424 30.6332 21.4182 30.6332C20.694 30.6332 19.7524 30.3434 19.9699 30.5608C20.1148 30.7057 20.6216 32.1541 20.4042 33.2402C20.2593 34.0368 19.5351 34.5436 19.1008 34.761H18.9559H18.1592C17.5075 34.761 17.2901 34.761 16.421 34.2542C15.6244 33.7475 15.4794 32.8059 15.5519 32.2266C15.6244 31.6474 15.7693 31.3575 15.7693 31.3575C16.2036 30.4159 17.0003 30.1265 17.4351 30.0541C16.4935 30.199 15.8418 30.6333 15.48 31.43C15.0457 32.2991 15.4075 33.4576 15.5524 33.8924C15.6974 34.3267 16.8558 34.9065 15.335 34.2547C13.8142 33.603 13.2349 30.6338 13.2349 30.6338L13.3799 30.4888C13.6697 30.199 16.2041 29.8371 17.8699 29.8371C19.5357 29.8371 25.1122 30.8512 25.4742 31.0681C25.8365 31.2131 26.4882 33.5306 26.7776 34.5441C26.6326 34.3267 26.4152 34.0374 26.2708 33.82C26.0534 33.3856 25.4741 31.9368 25.1842 31.6473C24.8944 31.3575 24.605 31.5024 24.605 31.5024C24.605 31.5024 25.2567 31.7198 25.0393 32.8783C24.8944 34.0368 23.8083 34.689 23.8083 34.689C23.8083 34.689 23.5184 34.8339 24.0257 34.8339H25.5465C26.0533 34.8339 26.2707 34.7614 26.2707 34.7614C26.2707 34.7614 26.705 34.9064 26.85 34.9788V35.0513C26.85 35.1238 26.7775 35.3412 26.7775 35.3412C26.6326 35.3412 26.2707 35.4136 26.1258 35.3412C26.0533 35.2687 25.9084 35.1238 25.9084 35.1238L19.5352 34.8339C20.1869 34.689 21.9251 34.7614 22.1426 34.7614C22.2875 34.6894 21.8532 34.3996 21.8532 34.3996L21.8531 34.3995Z" fill="black"/>
<path d="M17.5071 30.0545C17.5796 30.0545 17.7245 29.9821 17.797 29.9821C17.797 29.9821 17.6521 29.9821 17.5071 30.0545Z" fill="black"/>
<path d="M27.3566 38.673L19.2456 38.6005C18.8113 38.6005 18.5939 38.8179 18.5939 39.2522C18.5939 39.6866 18.8113 40.0489 19.2456 40.0489L27.429 40.1938C27.8633 40.1938 28.2256 39.9764 28.2256 39.4697C28.2256 38.9629 27.7913 38.673 27.3565 38.673L27.3566 38.673ZM19.608 38.673L22.5772 38.7455H19.1012C19.3182 38.601 19.608 38.673 19.608 38.673ZM22.1424 39.7595H21.7801L19.3177 39.687C19.3177 39.687 18.666 39.6146 18.7384 39.1078C18.8109 38.8904 18.9558 38.7455 19.1008 38.7455L22.8666 38.8904V38.9629H22.2873V39.5421H22.3598V39.1078H22.7221V39.832H22.3598L22.1424 39.7595ZM27.719 39.6146C27.4292 39.9769 26.3432 39.9044 26.3432 39.9044L23.229 39.832V38.8904H24.5324V39.832H24.8947V38.8904H27.3571C27.3571 38.8904 27.4296 39.2527 27.0673 39.2527C26.7774 39.2527 27.1397 39.6151 27.1397 39.6151L27.4291 39.6146L27.719 39.2522C27.719 39.1803 28.0089 39.2527 27.719 39.6146L27.719 39.6146Z" fill="black"/>
<path d="M19.0281 39.0354H19.318V39.4697H19.0281V39.0354Z" fill="black"/>
<path d="M15.77 26.5064H17.8701C18.3044 26.5064 19.6083 26.6514 19.7532 26.6514C19.8982 26.6514 20.6223 26.8688 20.6223 26.8688C20.6223 26.8688 21.2741 27.0137 20.9847 26.7963C20.7673 26.5789 18.3773 26.2895 18.3773 26.2895H15.8424L15.77 26.5064Z" fill="black"/>
<path d="M19.5355 32.3729C19.5355 33.1695 18.8113 33.8212 17.9422 33.8212C17.073 33.8212 16.3488 33.1695 16.3488 32.3729C16.3488 32.2279 16.3488 32.083 16.4213 31.9385C16.2764 32.1559 16.2764 32.3729 16.2764 32.5903C16.2764 33.4594 17.0005 34.1111 17.9422 34.1111C18.8838 34.1111 19.608 33.4594 19.608 32.5903C19.608 32.3729 19.5355 32.1559 19.4631 31.9385C19.4631 32.083 19.5355 32.2279 19.5355 32.3729H19.5355Z" fill="black"/>
<path d="M24.2434 32.7341C24.2434 32.5167 24.171 32.2997 24.0985 32.1548C24.171 32.2998 24.171 32.3722 24.171 32.5171C24.171 33.2413 23.5192 33.8205 22.7951 33.8205C21.9984 33.8205 21.4192 33.2413 21.4192 32.5171C21.4192 32.3722 21.4192 32.2998 21.4917 32.1548C21.4192 32.3722 21.3467 32.5171 21.3467 32.7341C21.3467 33.4582 21.9985 34.1099 22.8676 34.1099C23.5913 34.1099 24.2435 33.5307 24.2435 32.7341H24.2434Z" fill="black"/>
<path d="M15.8425 30.272C15.4081 30.1995 14.5391 30.5619 14.6114 30.5619C14.6839 30.5619 15.553 30.9242 15.553 30.9242C15.9869 30.9962 16.2767 30.272 15.8424 30.272H15.8425Z" fill="black"/>
<path d="M39.3794 16.1496H46.6212C46.6212 16.1496 47.3454 16.1496 47.2729 15.7872C47.2005 15.4249 44.3762 15.2805 43.4346 15.2805H43.0003H42.566C41.6244 15.2805 38.8002 15.4254 38.7277 15.7872C38.6552 16.1496 39.3794 16.1496 39.3794 16.1496V16.1496Z" fill="black"/>
<path d="M75.5166 34.545C75.5166 34.545 75.0098 30.4892 74.4301 29.0408C73.7783 27.5925 72.1851 26.5784 72.1851 26.5059V26.361C72.1851 26.2161 72.6919 25.9267 73.0542 25.8542C73.4165 25.8542 74.0683 25.4919 74.2127 25.275C74.3577 25.0576 74.4301 24.0439 74.2127 23.3918C73.9953 22.7401 72.6194 22.0884 72.1851 22.0159C71.6783 21.9435 70.3744 21.871 70.085 21.871C69.7951 21.9435 69.0709 22.2333 68.9265 22.3053C68.7815 22.4507 68.7091 23.1749 68.7091 23.1749C68.7091 23.1749 68.5641 24.6958 68.6366 25.0581L68.7091 25.4204C68.7091 25.4204 69.2883 25.6378 69.4333 25.7827C69.5057 25.8552 69.5057 26.0001 69.5057 26.0001C69.5057 25.9992 66.8988 26.0716 66.6815 26.0716C66.5365 26.0716 66.0298 26.1441 65.7399 26.2166H64.9432C64.9432 26.2166 63.3499 24.3334 62.7706 23.9716C62.2638 23.5373 59.8739 20.2783 59.8739 20.2783H60.5981V20.7851H60.888V18.4676C60.888 18.2502 60.2362 18.1777 60.2362 18.1777C60.2362 18.1777 57.5568 17.9603 57.412 17.9603C57.1221 17.6705 56.6878 17.2362 56.1086 16.9463C55.2395 16.4395 53.4292 16.2221 53.4292 16.2221L51.4741 16.0047L48.5773 15.7873C48.5773 15.7873 47.9981 15.425 46.7667 15.2081C46.3323 15.1356 45.7526 15.0631 45.1733 14.9907H45.1009C44.5941 14.9907 43.725 14.9182 43.0007 14.9182H42.8558H42.7109C42.0592 14.9182 41.1175 14.9907 40.6108 14.9907H40.5383C39.959 15.0631 39.3798 15.1356 38.945 15.2081C37.7865 15.4255 37.1343 15.7873 37.1343 15.7873L34.2376 16.0047L32.4989 16.2226C32.4989 16.2226 30.6882 16.44 29.8195 16.9468C29.3127 17.2366 28.8055 17.671 28.5161 17.9608C28.3712 17.9608 25.6919 18.1782 25.6919 18.1782C25.6919 18.1782 25.0401 18.2507 25.0401 18.4681V20.7855H25.33L25.3291 20.2778H26.0532C26.0532 20.2778 23.6633 23.6093 23.1565 23.9711C22.6497 24.4055 20.9839 26.2161 20.9839 26.2161H20.1873C19.8974 26.1436 19.4631 26.0712 19.2457 26.0712C19.0283 26.0712 16.4214 25.9987 16.4214 25.9987C16.4214 25.9987 16.4214 25.8538 16.4939 25.7813C16.5664 25.7088 17.2181 25.419 17.2181 25.419C17.2181 25.419 17.2905 25.419 17.2905 25.0566C17.363 24.6233 17.2905 23.175 17.2905 23.175C17.2905 23.175 17.2905 22.4508 17.1456 22.3783C17.0731 22.3058 16.2765 21.944 15.9871 21.944C15.6972 21.8715 14.3938 21.944 13.887 22.0889C13.3802 22.1614 12.0038 22.8856 11.8593 23.4648C11.6419 24.1165 11.7869 25.0581 11.8593 25.3479C12.0043 25.5653 12.656 25.9272 13.0178 25.9272C13.3802 25.9272 13.9594 26.2171 13.887 26.434V26.5789C13.887 26.6514 12.2211 27.6654 11.642 29.1138C11.0628 30.5622 10.5555 34.6179 10.5555 34.6179C10.5555 34.6179 9.97623 44.3222 10.1931 47.6543V48.0886H10.8449H10.1931V48.451C10.1931 48.7408 10.3381 49.0302 10.5555 49.1751C11.0623 49.3925 13.3072 49.7544 13.5972 49.7544C13.8871 49.7544 13.1628 49.1027 13.3798 49.0302C13.5972 48.9577 15.3349 49.3201 15.4074 49.537C15.4799 49.7544 15.5523 49.9713 15.0451 49.9713C14.5383 49.9713 14.031 49.8989 14.031 49.8989C14.031 49.8989 14.8277 50.1163 16.421 50.1887C18.0143 50.2612 32.2806 50.1887 32.2806 50.1887L42.4921 50.2612H43.6506L53.8621 50.1887C53.8621 50.1887 68.2008 50.2612 69.7218 50.1887C71.3151 50.1163 72.1117 49.8989 72.1117 49.8989C72.1117 49.8989 71.5325 49.9713 71.0977 49.9713C70.6633 49.9713 70.6633 49.8264 70.7353 49.537C70.8803 49.3196 72.6185 48.9578 72.763 49.0302C72.9804 49.1027 72.2562 49.7544 72.5456 49.7544C72.8354 49.7544 75.0805 49.3921 75.5873 49.1751C75.8771 49.1027 75.9496 48.7408 75.9496 48.451V48.0886H75.2979H75.9496V47.6543C76.1679 44.2498 75.5158 34.5455 75.5158 34.5455L75.5166 34.545ZM68.7816 49.3185C64.509 49.8253 48.1416 49.8253 43.6511 49.8253H43.0719H42.4926C37.9301 49.8253 21.5627 49.8253 17.3622 49.3185C15.5516 49.1011 14.3205 48.8842 13.5239 48.6668C13.5239 47.7977 13.6689 44.3217 14.1756 43.1627C14.7549 41.8593 15.9138 41.4969 16.6381 41.4969C17.3622 41.4969 24.8939 41.6418 24.8939 41.6418H61.3936C61.3936 41.6418 68.9253 41.4969 69.6494 41.4969C70.3736 41.4969 71.5326 41.8592 72.1119 43.1627C72.6187 44.3212 72.7636 47.7252 72.7636 48.6668C71.822 48.8118 70.591 49.0291 68.7803 49.3185H68.7816ZM75.7341 46.06C75.8065 46.2774 75.7341 47.4359 75.7341 47.6533C75.7341 47.8708 75.5167 47.6533 75.3717 47.5084C75.2268 47.3635 74.9374 47.3635 74.72 47.3635C74.5751 47.3635 74.5751 47.8703 74.4301 47.9427C74.2852 48.0152 74.0678 47.7253 74.0678 47.7253V44.7561C74.0678 42.1487 73.9953 41.9319 73.9229 41.6419C73.8504 41.3521 73.8504 43.3077 73.8504 43.3077L73.9953 47.8703L74.0678 48.0877V48.1602C73.9229 48.2326 73.561 48.45 72.6194 48.6669C72.6194 48.1602 72.547 45.8427 72.2571 44.2494C72.3296 44.1769 72.6194 43.815 72.8364 43.5252C73.0538 43.1628 73.1262 43.4527 73.2707 43.5252C73.3431 43.5976 73.2707 44.6837 73.3431 44.6837C73.4156 44.6837 73.5605 44.9011 73.5605 44.9011C73.5605 44.9011 73.4881 46.277 73.633 47.146C73.7779 48.0152 73.8504 47.9427 73.9229 47.9427C73.9958 47.9427 73.8514 44.901 73.7789 44.6117C73.7064 44.3218 73.489 43.2358 73.489 42.9459C73.489 42.6559 73.9234 42.2941 73.8514 42.0043C73.7789 41.7144 73.634 41.8593 73.634 41.8593C73.634 41.8593 72.9098 43.0904 72.7649 43.3077C72.6199 43.4526 72.4025 43.742 72.2581 43.8869C72.1856 43.5971 72.1131 43.3077 72.0407 43.0903C71.4614 41.7869 70.3025 41.4245 69.5782 41.4245C68.8541 41.4245 61.3224 41.5694 61.3224 41.5694L43.5793 41.5699H24.6778C24.6778 41.5699 17.146 41.4249 16.4219 41.4249C15.6977 41.4249 14.5387 41.7873 13.9595 43.0908C13.887 43.3082 13.8145 43.5976 13.7421 43.8874C13.5971 43.7425 13.3797 43.4531 13.2353 43.3082C13.0904 43.1632 12.3662 41.8598 12.3662 41.8598C12.3662 41.8593 12.1488 41.7144 12.0763 42.0043C12.0038 42.2941 12.4386 42.656 12.4386 42.9459C12.4386 43.2357 12.2212 44.3217 12.1488 44.6117C12.0763 44.9015 11.8589 47.9432 11.9314 47.9432C12.0038 47.9432 12.1488 48.0157 12.2212 47.1465C12.3662 46.2774 12.2937 44.9016 12.2937 44.9016C12.2937 44.9016 12.4386 44.6842 12.5111 44.6842C12.5836 44.6842 12.4386 43.5977 12.5836 43.5257C12.656 43.4532 12.801 43.1633 13.0179 43.5257C13.2353 43.8155 13.5247 44.1774 13.5971 44.2499C13.3073 45.8432 13.2348 48.2331 13.2348 48.6674C12.2932 48.45 11.9314 48.2331 11.7864 48.1606V48.0882L11.8589 47.8708L12.0038 43.3082C12.0038 43.3082 12.0038 41.3531 11.9314 41.6424C11.8589 41.9323 11.7864 42.1492 11.7864 44.7566V47.7258C11.7869 47.7258 11.7145 47.8703 11.4971 47.8703C11.3521 47.7978 11.4246 47.291 11.2072 47.291C11.0623 47.291 10.7729 47.291 10.5555 47.436C10.4105 47.5809 10.1931 47.8703 10.1931 47.5809C10.1931 47.291 10.1207 46.205 10.1931 45.9875C10.2656 45.7702 10.2656 45.8426 10.2656 45.8426C10.2656 45.8426 10.1207 44.6116 10.1207 43.5252C10.1207 42.4387 10.1931 38.3833 10.1931 38.3833C10.1931 38.3833 10.3381 36.0659 10.5555 34.545C10.7729 33.0242 10.7729 31.7208 10.7729 31.7208C10.7729 31.7208 10.8453 29.7657 12.0039 28.4618C13.1624 27.1584 13.6697 26.796 13.6697 26.796C13.6697 26.796 13.7422 26.7235 14.249 26.5061C14.8282 26.3612 14.9731 26.4336 14.8282 26.2162C14.6833 26.0713 14.3939 25.9263 14.3939 25.8539V25.4916C14.3939 25.6365 14.1765 25.7814 13.5972 25.709C12.9455 25.6365 12.1489 25.6365 11.859 25.2746C11.5692 24.9848 11.5692 23.6813 11.859 23.1745C12.1489 22.6677 13.0175 22.1605 14.4664 21.9435C15.9148 21.7261 16.7114 22.3058 16.9289 22.4503C17.1463 22.6677 17.1463 24.6952 17.1463 24.7677C17.1463 24.8402 17.1463 25.347 17.0738 25.4194C17.0013 25.4919 16.4945 25.6368 16.3496 25.7818C16.2771 25.8542 16.2047 26.2161 16.2047 26.2161H18.8841C18.8841 26.2161 19.6082 26.2161 19.7532 26.2886C19.8256 26.2886 19.8981 26.361 20.0431 26.361L20.5498 26.506C20.5498 26.506 20.6948 26.506 20.8397 26.5784C21.0571 26.6509 21.3465 26.6509 21.4914 26.5784C21.6364 26.506 22.2881 25.3474 22.2881 25.3474C22.2881 25.3474 22.7949 24.6957 23.5191 23.7541C24.2433 22.8849 25.2573 21.7989 26.2709 20.6399C28.4435 18.3224 29.0951 17.8156 29.5299 17.7432C29.9642 17.5982 29.5299 17.7432 29.4574 17.6707C29.385 17.5982 29.5299 17.4533 29.6024 17.3084C29.9647 17.091 30.8334 16.7291 31.9923 16.5117C33.5856 16.2943 37.2065 16.0774 37.2065 16.0774V16.0049L37.3514 15.9324C37.4964 15.86 37.4963 15.7875 38.5099 15.4981C39.3066 15.2807 41.5516 15.2083 42.855 15.2083C44.1584 15.2083 46.331 15.2807 47.2001 15.4981C48.2141 15.788 48.2141 15.8605 48.3586 15.9324L48.5035 16.0049L48.5045 15.9324C48.5045 15.9324 52.1978 16.0774 53.7187 16.3668C54.9497 16.5842 55.7463 16.946 56.1086 17.1634C56.1811 17.3084 56.326 17.4533 56.2536 17.5258C56.1811 17.5982 55.7468 17.5258 56.1811 17.5982C56.6154 17.7432 57.2676 18.1775 59.4401 20.495C60.5266 21.6535 61.5402 22.8124 62.1919 23.6091C62.9161 24.5507 63.4229 25.2025 63.4229 25.2025C63.4229 25.2025 64.0746 26.361 64.2196 26.4335C64.292 26.506 64.5819 26.4335 64.8713 26.4335C65.0162 26.4335 65.1611 26.361 65.1611 26.361L65.6679 26.2161C65.7404 26.2161 65.8853 26.1436 65.9578 26.1436C66.1027 26.1436 66.8269 26.0712 66.8269 26.0712H69.5063C69.5063 26.0712 69.4338 25.7813 69.3614 25.6368C69.2889 25.5644 68.7096 25.347 68.6372 25.2745C68.5652 25.2025 68.7097 24.8407 68.7097 24.7682C68.7097 24.6957 68.7097 22.6681 68.9271 22.4507C69.1444 22.2334 69.9411 21.7266 71.3895 21.944C72.8378 22.1614 73.7069 22.6681 73.9969 23.175C74.2868 23.6818 74.2867 24.9857 73.9969 25.2751C73.707 25.565 72.9103 25.6374 72.2587 25.7094C71.607 25.7819 71.462 25.637 71.462 25.492V25.8544C71.462 25.9993 71.1722 26.0718 71.0277 26.2167C70.8828 26.3616 71.0277 26.2892 71.607 26.5066C72.1862 26.6515 72.1862 26.7964 72.1862 26.7964C72.1862 26.7964 72.693 27.0863 73.852 28.4623C75.0105 29.8381 75.0831 31.7213 75.0831 31.7213C75.0831 31.7213 75.0831 33.0972 75.3004 34.5455C75.5178 36.0664 75.6628 38.3838 75.6628 38.3838C75.6628 38.3838 75.7352 42.4396 75.7352 43.5256C75.7352 44.6122 75.5903 45.8431 75.5903 45.8431C75.5898 45.8426 75.6623 45.7702 75.7348 46.06L75.7341 46.06Z" fill="black"/>
<path d="M42.4213 37.7319H41.1899V38.3836H44.8114V37.7319H42.4213Z" fill="black"/>
<path d="M47.4904 36.2834H43.5796H42.4211H38.5104C38.076 36.2834 37.1345 36.3559 36.2654 36.2109C37.2794 36.4283 38.3655 36.5008 38.3655 36.5008H47.6354C47.6354 36.5008 48.722 36.5008 49.7356 36.2109C48.8664 36.3554 47.9254 36.2834 47.4906 36.2834H47.4904Z" fill="black"/>
<path d="M50.3149 35.9934C50.8217 35.7761 51.2565 35.5591 51.4735 35.1968C51.5459 35.0519 51.6184 34.8345 51.7633 34.5451C51.7633 34.5451 51.6909 34.6175 51.0391 35.4867C50.8222 35.7761 50.6048 35.921 50.315 35.9934H50.3149Z" fill="black"/>
<path d="M71.5336 24.9855C72.0404 24.9855 72.982 24.913 73.1269 25.1304C73.1994 25.2753 73.4893 25.3478 73.7062 25.3478C73.7786 25.2753 73.8511 25.2029 73.9236 25.1304C73.996 25.0579 74.0685 24.913 74.0685 24.8405C73.8511 24.6956 73.4893 24.4782 73.4168 24.3338C73.2719 24.1888 72.7651 24.3338 72.91 24.1888C73.0545 24.0444 73.8511 23.8994 73.7786 23.8994C73.7062 23.8994 72.9095 23.4651 72.7646 23.7545C72.6197 24.0444 71.6061 24.4787 71.3162 24.6236C71.2438 24.6236 71.2438 24.6961 71.2438 24.6961C71.0988 24.6961 71.2438 24.6236 71.2438 24.6236C71.2438 24.6236 71.6061 24.3337 71.3162 24.4787C71.0264 24.6236 71.2438 24.3337 71.2438 24.3337C71.2438 24.3337 72.9096 23.3197 72.6921 23.0303C72.4747 22.813 70.8815 22.4511 70.3022 22.596C69.7229 22.8134 69.4331 22.8859 69.6505 23.3202C69.8679 23.7545 70.3746 24.1169 70.0848 24.2618C69.7949 24.4067 69.3606 24.0444 69.2881 24.1169C69.2157 24.1893 69.578 24.6236 69.1432 24.6236C68.9258 24.6236 68.8533 24.6236 68.7089 24.5512V24.9135C68.8538 25.1309 69.0712 25.3478 69.2881 25.3478C69.578 25.3478 69.9398 24.9135 70.5191 24.841C71.0989 24.7686 71.0264 24.9855 71.5337 24.9855L71.5336 24.9855Z" fill="black"/>
<path d="M74.8655 37.5869C74.7205 38.601 74.3587 46.7844 74.5031 46.7119C74.5756 46.6394 75.2273 46.2051 75.5172 46.0602C75.5172 44.9017 75.3723 37.3695 75.2273 36.5728C75.1553 35.7761 75.0104 36.5728 74.8655 37.5868V37.5869Z" fill="black"/>
<path d="M48.649 42.511H37.3519C37.3519 42.511 36.9175 42.511 36.9175 42.9453V45.8421C36.9175 45.8421 36.99 46.2764 37.5693 46.2764H48.4325C49.0118 46.2764 49.0843 45.8421 49.0843 45.8421V42.9453C49.0833 42.511 48.649 42.511 48.649 42.511H48.649Z" fill="black"/>
<path d="M45.4621 47.5814H40.5372C40.4647 47.5814 40.3923 47.6538 40.3923 47.7263V47.9437C40.3923 48.0162 40.4647 48.0886 40.5372 48.0886H45.4621C45.5345 48.0886 45.607 48.0162 45.607 47.9437V47.7983C45.607 47.6538 45.5345 47.5814 45.4621 47.5814Z" fill="black"/>
<path d="M52.9944 42.3661H52.3427C52.1253 42.3661 51.9084 42.5835 51.9084 42.8004V46.7112C51.9084 46.9286 52.1258 47.1455 52.3427 47.1455H52.9944C53.2118 47.1455 53.4288 46.9281 53.4288 46.7112V42.8004C53.4288 42.583 53.2118 42.3661 52.9944 42.3661Z" fill="black"/>
<path d="M69.0715 42.3661H58.2807C57.4841 42.3661 57.0497 43.1627 57.0497 43.8869V47.4354C57.0497 48.232 57.484 48.6664 58.2807 48.6664L68.9265 48.3041C69.7232 48.3041 70.3024 47.6524 70.3024 46.9282V43.6692C70.3024 42.873 69.8681 42.3663 69.0714 42.3663L69.0715 42.3661Z" fill="black"/>
<path d="M72.9096 49.8259C70.3022 50.1158 67.7677 50.2603 65.1605 50.2603C58.9322 50.2603 49.2283 50.3327 42.9995 50.3327C36.7706 50.3327 27.0674 50.2603 20.8385 50.2603C18.2311 50.2603 15.6243 50.1153 13.0894 49.8259C12.2928 49.7535 11.7136 49.6085 11.3512 49.5361C11.2788 49.5361 11.2063 49.5361 11.1339 49.4636C11.1339 49.4636 11.2788 51.9985 12.2204 52.5778C13.162 53.157 21.9246 53.8812 32.5704 53.8812H42.4196H43.5781H53.4274C64.1457 53.8812 72.8363 53.157 73.7774 52.5778C74.719 51.9985 74.8639 49.4636 74.8639 49.4636C74.7915 49.4636 74.719 49.4636 74.6465 49.5361C74.3576 49.6085 73.7059 49.7535 72.9092 49.8259H72.9096Z" fill="black"/>
<path d="M69.0715 29.6196C66.2473 29.6196 63.2056 30.1989 62.0465 30.4163C60.8155 30.6337 60.1634 30.7786 60.1634 30.7786C60.1634 30.7786 60.2359 30.2718 60.1634 30.1269C60.0909 29.982 59.7291 30.996 59.7291 30.996L58.2807 35.4861C59.9465 35.631 61.8292 35.4861 61.8292 35.4861L68.3469 35.1962C68.3469 35.1962 69.7227 35.2687 71.2436 34.617C72.7644 33.9652 72.9094 30.4163 72.9094 30.4163L71.4611 29.9096C70.23 29.5472 69.0716 29.6197 69.0716 29.6197L69.0715 29.6196ZM72.62 30.5612C72.62 30.5612 72.0408 33.5304 70.5199 34.1822C68.999 34.8339 70.0855 34.2547 70.3025 33.8199C70.4474 33.3855 70.8093 32.2265 70.3749 31.3574C70.0126 30.5608 69.3609 30.1264 68.4198 29.9815C68.8541 30.054 69.6508 30.3439 70.0856 31.2849C70.0856 31.2849 70.2305 31.5748 70.303 32.1541C70.3755 32.7333 70.2305 33.6749 69.4339 34.1817C68.6368 34.7619 68.4923 34.7619 67.7681 34.7619H66.9714H66.8265C66.3922 34.5445 65.668 34.0377 65.5231 33.2411C65.3782 32.1545 65.813 30.7061 65.9574 30.5617C66.1024 30.4167 65.2332 30.6341 64.5091 30.6341C63.7849 30.6341 63.6399 30.7066 63.7124 30.7066C63.7849 30.7791 65.0158 31.2134 65.0158 32.5898C65.0158 32.5898 65.0158 33.7483 64.1467 34.4004C64.1467 34.4004 63.6399 34.6903 63.5674 34.7628C63.7848 34.6903 65.5226 34.6178 66.1748 34.8352L59.8016 35.1251C59.8016 35.1251 59.7292 35.1976 59.5842 35.3425C59.5118 35.415 59.0774 35.3425 58.9325 35.3425C58.86 35.3425 58.86 35.1251 58.86 35.0526V34.9802C59.0774 34.9077 59.4393 34.7628 59.4393 34.7628C59.4393 34.7628 59.7291 34.8352 60.1635 34.8352H61.6843C62.1911 34.8352 61.9017 34.6903 61.9017 34.6903C61.9017 34.6893 60.8881 34.0371 60.7432 32.8786C60.5983 31.7201 61.1775 31.5028 61.1775 31.5028C61.1775 31.5028 60.8877 31.3578 60.5983 31.6477C60.3084 31.9376 59.7292 33.3859 59.5118 33.8203C59.4393 34.0377 59.2219 34.3271 59.005 34.5445C59.2948 33.458 60.019 31.1405 60.3084 31.0685C60.7427 30.9235 66.3193 29.8375 67.9126 29.8375C69.5784 29.8375 72.1132 30.2718 72.4027 30.4892L72.62 30.5612Z" fill="black"/>
<path d="M68.4929 30.0545C68.3479 30.0545 68.2755 29.9821 68.203 29.9821C68.2755 29.9821 68.3479 29.9821 68.4929 30.0545Z" fill="black"/>
<path d="M66.8269 38.6005L58.7159 38.673C58.2816 38.673 57.7743 39.0353 57.7743 39.4696C57.7743 39.9039 58.1366 40.1938 58.5709 40.1938L66.7543 40.0489C67.1887 40.0489 67.4061 39.6865 67.4061 39.2522C67.4061 38.8174 67.2611 38.6005 66.8268 38.6005L66.8269 38.6005ZM66.3921 38.6725C66.3921 38.6725 66.682 38.6725 66.8989 38.745H63.4229L66.3921 38.6725ZM58.2811 39.6141C57.9912 39.2517 58.3535 39.1798 58.3535 39.1798L58.6434 39.5421H58.9333C58.9333 39.5421 59.2956 39.1798 59.0058 39.1798C58.7159 39.1798 58.7159 38.8174 58.7159 38.8174H61.1783L61.1778 39.8315H61.4677V38.8899H62.7711V39.8315L59.5844 39.9764C59.5844 39.9764 58.4984 40.0489 58.281 39.6141H58.2811ZM66.6819 39.6865L64.2195 39.759H63.3499V39.0348H63.7122V39.4692H63.7847V38.8899H63.2055V38.8174L66.9713 38.6725C67.1162 38.745 67.3336 38.8174 67.3336 39.0348C67.4061 39.6141 66.6819 39.6866 66.6819 39.6866L66.6819 39.6865Z" fill="black"/>
<path d="M63.5675 26.7239L64.1467 26.5789L58.4253 19.7714C58.4253 19.7714 57.4112 18.1056 55.5286 17.5988C53.6454 17.092 50.4592 16.9471 50.4592 16.9471C50.4592 16.9471 49.0109 16.3679 48.7934 16.3679C48.576 16.3679 48.576 16.6577 48.576 16.6577L43.5067 16.5128H42.3482L37.2788 16.6577C37.2788 16.6577 37.2788 16.3679 37.0615 16.3679C36.8441 16.3679 35.3956 16.9471 35.3956 16.9471C35.3956 16.9471 32.209 17.092 30.3263 17.5988C28.4432 18.1056 27.4296 19.7714 27.4296 19.7714L21.7081 26.5789L22.2874 26.7239C22.7942 26.8688 24.6773 27.0862 26.488 27.3031C28.0813 27.4481 29.5297 27.5205 29.8195 27.593C30.1818 27.6655 30.4712 27.7379 30.6886 27.8829C31.1229 28.1727 31.2679 28.4621 31.2679 28.4621C32.0645 30.1279 33.4405 33.1695 34.0921 34.6179L33.223 32.2279L31.4848 28.607L33.1506 28.6794L32.4264 28.8244H36.844C36.844 28.8244 37.7856 30.1277 38.075 30.635C38.3649 31.1418 38.3649 30.2727 38.5818 30.2727H42.2028H43.3613H46.9823C47.1997 30.2727 47.1997 31.1418 47.489 30.635C47.7789 30.1282 48.7201 28.8244 48.7201 28.8244H53.1376L52.4135 28.6794L54.0793 28.607L52.3411 32.2279L51.472 34.6179C52.1962 33.1695 53.5721 30.2003 54.2962 28.4621C54.2962 28.4621 54.5136 28.1722 54.8755 27.8829C55.0929 27.7379 55.3823 27.593 55.7446 27.593C56.0345 27.5205 57.4828 27.4481 59.0761 27.3031C61.1776 27.0862 63.0609 26.8688 63.5676 26.7239H63.5675ZM60.3085 25.4205C60.4534 25.348 60.7428 25.2756 60.8877 25.2756C61.322 25.2756 61.5394 25.348 61.322 25.5654C61.1046 25.7828 60.5254 25.7828 60.5254 25.7828C60.0191 25.7099 60.0915 25.4929 60.3085 25.4205ZM58.7876 23.3199C59.005 23.5373 60.1635 25.7098 59.7292 25.42C59.7292 25.42 59.2224 24.8407 58.9325 24.189C58.6432 23.5372 58.5707 23.1029 58.7876 23.3199V23.3199ZM56.5426 23.6097C57.4118 23.8996 58.6428 23.9721 58.6428 24.3339C58.6428 24.3339 56.0354 24.5513 56.0354 24.1165C56.0358 23.6822 55.6735 23.3923 56.5426 23.6097H56.5426ZM54.2977 20.858C54.8045 21.3648 55.6011 22.5238 55.2393 22.5962C55.2393 22.5962 54.2977 22.4512 54.0808 21.7271C53.8634 21.0029 53.7909 20.3507 54.2977 20.8579V20.858ZM42.4208 18.4681H43.0001H43.5793H47.7076C47.925 18.7579 48.2868 19.2647 48.5767 19.6991C49.011 20.4233 48.7216 22.5233 48.7216 22.8133C48.7216 23.1032 49.2284 23.6099 49.5907 22.9582C49.9531 22.3065 51.8357 22.3065 52.5599 22.3065C53.3566 22.3065 53.8633 22.6688 52.9223 22.8857C51.9807 23.1031 52.1981 24.9134 52.1981 25.1307C52.1981 25.4206 53.3566 25.4206 52.6324 25.565C51.9082 25.71 51.6184 26.4341 51.6184 26.4341H50.6768C50.2425 26.4341 49.5183 26.0718 49.0835 25.8549C49.0835 25.8549 48.7211 25.7099 47.9249 25.2756C47.78 24.6964 47.4906 23.5375 47.2732 23.465C46.9834 23.3925 46.9109 23.32 46.9109 23.32C46.9109 23.32 46.1867 23.5374 45.9693 23.32C45.7519 23.1026 46.9834 22.7408 47.1278 22.306C47.2727 21.8717 46.2587 20.7851 46.2587 20.7851H40.0305C40.0305 20.7851 39.0164 21.9436 39.1613 22.306C39.3063 22.7403 40.4647 23.1026 40.3198 23.32C40.1025 23.5374 39.3783 23.32 39.3783 23.32C39.3783 23.32 39.2333 23.3925 39.0159 23.465C38.7985 23.5374 38.5091 24.7684 38.3642 25.2756C37.5676 25.7824 37.2057 25.8549 37.2057 25.8549C36.7714 26.0723 36.0472 26.4341 35.6124 26.4341H34.6708C34.6708 26.4341 34.3809 25.71 33.6567 25.565C32.9325 25.4201 34.0911 25.4201 34.0911 25.1307C34.0911 24.8408 34.3085 23.0306 33.3669 22.8857C32.4253 22.7408 32.9325 22.3065 33.7292 22.3065C34.5259 22.3065 36.4086 22.3065 36.6984 22.9582C37.0607 23.6099 37.5675 23.1031 37.5675 22.8133C37.5675 22.5234 37.2777 20.3508 37.7125 19.6991C38.0023 19.2648 38.2917 18.7575 38.5816 18.4681C39.5961 18.3956 41.045 18.3956 42.4209 18.4681H42.4208ZM46.9834 24.6963C46.8384 24.6238 46.6935 24.4789 46.5491 24.4064C46.4041 24.334 46.3317 24.2615 46.1867 24.189C46.5491 23.9716 46.6935 23.6098 46.6935 23.6098L46.9834 24.334V24.6963ZM39.8136 24.189C39.6686 24.2615 39.5962 24.334 39.4512 24.4064C39.3063 24.4789 39.1614 24.6238 39.0169 24.6963V24.334L39.3068 23.6098C39.3068 23.6822 39.5242 23.9721 39.8136 24.189ZM31.7025 20.858C32.2093 20.3512 32.1369 21.0029 31.9199 21.7271C31.7025 22.4513 30.7614 22.5962 30.7614 22.5962C30.3986 22.5958 31.1953 21.3648 31.7025 20.8581V20.858ZM29.4576 23.6098C30.3267 23.3199 29.9644 23.6822 29.9644 24.1165C29.9644 24.5509 27.357 24.3339 27.357 24.3339C27.357 23.9721 28.5884 23.8996 29.4576 23.6098V23.6098ZM25.5468 25.7824C25.5468 25.7824 24.9675 25.7824 24.7501 25.565C24.5327 25.3476 24.7501 25.2751 25.1845 25.2751C25.3294 25.2751 25.6188 25.3476 25.7637 25.42C25.9086 25.493 25.9811 25.7099 25.5468 25.7824ZM26.271 25.348C25.8366 25.7104 26.9951 23.4649 27.2126 23.2479C27.43 23.0305 27.3575 23.4653 27.0676 24.117C26.7053 24.7688 26.271 25.3481 26.271 25.3481V25.348ZM29.4576 26.5065C29.4576 26.5065 29.5301 26.4341 29.892 26.1442C30.2543 25.8543 31.0505 25.565 31.0505 25.565C31.0505 25.565 31.1954 24.6959 31.4848 24.4784C31.7022 24.261 31.7022 24.5509 31.7022 25.1302C31.7022 25.7094 32.5713 25.4925 32.5713 25.4925C32.5713 25.4925 33.0056 25.565 32.3539 25.7824C31.7747 25.9998 31.5572 26.579 31.5572 26.579H29.4576L29.4576 26.5065ZM48.3592 29.2588L47.9969 29.6211H37.8583L37.496 29.2588C37.496 29.2588 37.2786 28.8965 37.3511 28.8965H42.2759H43.4344H48.3593C48.6491 28.8965 48.3593 29.2588 48.3593 29.2588H48.3592ZM54.515 26.5065C54.515 26.5065 54.2976 25.9273 53.7183 25.7099C53.139 25.4925 53.5009 25.42 53.5009 25.42C53.5009 25.42 54.37 25.6374 54.37 25.0577C54.37 24.4784 54.2975 24.1886 54.5874 24.406C54.8048 24.6234 55.0217 25.4925 55.0217 25.4925C55.0217 25.4925 55.8909 25.7824 56.1802 26.0717C56.5426 26.4341 56.6146 26.4341 56.6146 26.4341H54.5149L54.515 26.5065Z" fill="black"/>
<path d="M66.6094 39.0354H66.8993V39.4697H66.6094V39.0354Z" fill="black"/>
<path d="M65.306 26.8689C65.306 26.8689 66.0301 26.6515 66.1751 26.6515C66.32 26.6515 67.6234 26.5065 68.0582 26.5065H70.1584L70.1579 26.3621H67.5505C67.5505 26.3621 65.1605 26.6519 64.9431 26.8689C64.6542 27.0863 65.3059 26.8689 65.3059 26.8689H65.306Z" fill="black"/>
<path d="M66.4645 32.3729C66.4645 32.2279 66.4645 32.083 66.537 31.9385C66.392 32.1559 66.392 32.3729 66.392 32.5903C66.392 33.4594 67.1162 34.1111 68.0578 34.1111C68.9994 34.1111 69.7237 33.4594 69.7237 32.5903C69.7237 32.3729 69.6512 32.1559 69.5787 31.9385C69.6512 32.0835 69.6512 32.2284 69.6512 32.3729C69.6512 33.1695 68.927 33.8212 68.0579 33.8212C67.1887 33.7488 66.4645 33.1695 66.4645 32.3729H66.4645Z" fill="black"/>
<path d="M61.8291 32.5166C61.8291 32.3717 61.8291 32.2992 61.9015 32.1543C61.8291 32.3717 61.7566 32.5166 61.7566 32.7335C61.7566 33.4577 62.4083 34.1094 63.2774 34.1094C64.0741 34.1094 64.7983 33.5301 64.7983 32.7335C64.7983 32.5161 64.7258 32.2992 64.6534 32.1543C64.7258 32.2992 64.7258 32.3717 64.7258 32.5166C64.7258 33.2408 64.0741 33.82 63.3499 33.82C62.4813 33.8205 61.8291 33.2412 61.8291 32.5166H61.8291Z" fill="black"/>
<path d="M70.52 30.8519C70.52 30.8519 71.3166 30.4895 71.4616 30.4895C71.6065 30.4895 70.6649 30.1272 70.2305 30.1997C69.7233 30.2721 70.0131 30.9963 70.5199 30.8519H70.52Z" fill="black"/>
</svg>
