<svg width="700" height="700" viewBox="0 0 700 700" fill="none" xmlns="http://www.w3.org/2000/svg">
<path d="M572.23 275.34C570.832 273.012 568.968 271.613 566.64 271.149L520.984 259.501C515.859 258.102 510.734 261.364 509.804 266.489L499.554 307.954L459.949 298.169L458.086 297.704C455.758 297.239 452.961 297.704 451.098 298.637C448.77 300.036 447.371 301.899 446.906 304.227L436.656 345.692L395.191 335.442C390.066 334.044 384.941 337.306 384.011 342.431L372.827 383.427L331.362 373.177C329.034 372.712 326.237 373.177 324.374 374.11C322.046 375.509 320.647 377.372 320.183 379.7L319.249 383.427L308.534 427.22C307.136 432.345 310.397 437.47 315.522 438.4L496.292 483.591C498.62 484.055 500.484 484.524 502.816 484.524C514.464 484.524 525.179 476.602 527.972 464.958L573.628 282.328C574.096 280 573.631 277.672 572.233 275.34L572.23 275.34ZM399.38 355.473L439.911 365.723C442.239 366.657 445.501 366.188 447.833 364.789C450.161 363.391 452.024 360.598 452.024 357.801L459.946 325.656L486.036 360.133L472.989 412.313L390.059 391.348L399.38 355.473ZM509.8 460.303C508.866 464.494 504.675 466.826 500.948 465.893L329.038 423.03L335.562 397.405L478.122 433.28C478.587 433.28 479.52 433.745 479.985 433.745H480.45C480.915 433.745 481.384 433.745 482.313 433.28H482.778C483.712 433.28 484.177 432.815 484.641 432.346C486.97 430.948 488.368 429.085 488.833 426.756L505.138 361.065C505.603 358.269 505.138 355.476 503.739 353.144L480.911 323.328L503.274 328.917C508.399 330.316 513.524 327.054 514.454 321.929L524.704 280.464L552.657 287.452L509.8 460.303Z" fill="#FF0000"/>
<path d="M319.25 353.61C324.375 353.61 328.566 349.419 328.566 344.294V301.431H370.961C376.086 301.431 380.278 297.239 380.278 292.114V249.719H422.673C427.798 249.719 431.989 245.528 431.989 240.403V197.54H470.192C475.317 197.54 479.509 193.348 479.509 188.223L479.516 105.758C479.516 91.3174 467.868 79.6684 453.426 79.6684H156.656C142.215 79.6684 130.566 91.3164 130.566 105.758V376.908C130.566 391.349 142.214 402.998 156.656 402.998H267.066C272.191 402.998 276.383 398.807 276.383 393.682V354.08L319.25 353.61ZM361.648 282.798H319.253C314.128 282.798 309.937 286.989 309.937 292.114V334.977H194.867V306.559L231.207 279.071L262.887 297.239C266.613 299.103 270.808 298.638 274.067 295.841L343.485 228.751L361.653 243.192L361.648 282.798ZM257.758 383.898H156.658C152.467 383.898 149.205 380.636 149.205 376.445V105.765C149.205 101.573 152.467 98.3118 156.658 98.3118H453.428C457.619 98.3118 460.881 101.573 460.881 105.765V179.374H423.143C418.018 179.374 413.827 183.565 413.827 188.69V231.553H376.557L349.069 209.655C345.342 206.858 340.217 206.858 336.956 210.12L266.14 277.679L235.39 259.976C232.128 258.113 227.937 258.113 225.14 260.441L179.949 294.453C177.621 296.316 176.222 299.113 176.222 301.906V344.765C176.222 347.093 177.156 349.425 179.019 351.288C180.882 353.152 183.21 354.085 185.542 354.085H257.757L257.758 383.898Z" fill="#FF0000"/>
<path d="M225.14 220.83C248.433 220.83 267.07 201.728 267.07 178.9C267.07 155.607 247.968 136.97 225.14 136.97C201.847 136.97 183.21 156.072 183.21 178.9C182.745 201.728 201.847 220.83 225.14 220.83ZM225.14 155.139C238.187 155.139 248.433 165.854 248.433 178.432C248.433 191.479 237.718 201.725 225.14 201.725C212.093 201.725 201.847 191.01 201.847 178.432C201.382 165.389 212.097 155.139 225.14 155.139Z" fill="#FF0000"/>
</svg>
