<svg width="50" height="50" viewBox="0 0 188 188" fill="none" xmlns="http://www.w3.org/2000/svg">
<path d="M50.6767 114.035C43.718 114.035 38.1062 119.647 38.1062 126.606C38.1062 133.565 43.718 139.176 50.6767 139.176C57.6354 139.176 63.2472 133.565 63.2472 126.606C63.4717 119.647 57.6354 114.035 50.6767 114.035Z" fill="black"/>
<path d="M137.323 114.035C130.364 114.035 124.753 119.647 124.753 126.606C124.753 133.565 130.364 139.176 137.323 139.176C144.282 139.176 149.894 133.565 149.894 126.606C149.895 119.647 144.282 114.035 137.323 114.035Z" fill="black"/>
<path d="M80.7568 56.5665H82.7774L82.7763 11.2236H80.7558C75.8175 11.2236 71.7762 15.2637 71.7762 20.203V47.8122C72.0018 52.5259 75.8175 56.566 80.7568 56.566L80.7568 56.5665Z" fill="black"/>
<path d="M114.65 54.324V45.7936H108.141C107.018 45.7936 105.896 44.6711 105.896 43.5485C105.896 42.2015 107.018 41.3034 108.141 41.3034H114.65V36.1407H97.59C96.243 36.1407 95.3449 35.2426 95.3449 33.8956C95.3449 32.773 96.243 31.6505 97.59 31.6505H114.65V26.4877H108.141C107.018 26.4877 105.896 25.5897 105.896 24.2426C105.896 23.1201 107.018 21.9975 108.141 21.9975H114.65V13.4682C114.65 12.3457 113.528 11.2231 112.405 11.2231L87.4893 11.2242V56.5698H112.406C113.528 56.5688 114.65 55.6718 114.65 54.3247L114.65 54.324Z" fill="black"/>
<path d="M52.9193 44.4459L67.5103 42.4254V25.3649L52.9193 23.3443C46.4097 22.4463 40.7979 27.3844 40.7979 33.8951C40.7979 40.6304 47.083 45.5686 52.9193 44.446V44.4459Z" fill="black"/>
<path d="M145.853 97.6472H141.139L128.12 75.6485C124.528 69.3634 117.794 65.5468 110.61 65.5468H60.9998C53.8166 65.5468 47.0825 69.3623 43.4903 75.6485L30.4708 97.6472H26.6552C22.8396 97.6472 19.921 100.79 19.921 104.381V121.891C19.921 125.706 23.0641 128.625 26.6552 128.625H33.6139C33.6139 127.952 33.3894 127.053 33.3894 126.38C33.3894 116.952 41.0216 109.319 50.4498 109.319C59.878 109.319 67.5103 116.952 67.5103 126.38C67.5103 127.053 67.5103 127.952 67.2858 128.625H119.813C119.813 127.952 119.588 127.053 119.588 126.38C119.588 116.952 127.221 109.319 136.649 109.319C146.077 109.319 153.709 116.952 153.709 126.38C153.709 127.053 153.709 127.952 153.485 128.625H160.444C164.259 128.625 167.402 125.482 167.402 121.891C168.075 121.666 168.524 97.6469 145.852 97.6469L145.853 97.6472ZM74.021 97.6472H35.8597L47.532 77.8935C50.4506 73.1798 55.6133 70.0367 61.2249 70.0367H74.2444L74.2455 97.6459L74.021 97.6472ZM78.5101 97.6472V70.0381H110.61C116.222 70.0381 121.385 72.9566 124.303 77.8949L135.975 97.6485L78.5101 97.6472Z" fill="black"/>
<path d="M111.06 76.097C110.162 75.1989 108.815 75.1989 107.917 76.097C107.019 76.995 107.019 78.3421 107.917 79.2401L113.528 84.8519C114.426 85.7499 115.774 85.7499 116.672 84.8519C117.57 83.9538 117.57 82.6068 116.672 81.7088L111.06 76.097Z" fill="black"/>
<path d="M102.307 78.1195C101.409 77.2214 100.062 77.2214 99.1638 78.1195C98.2658 79.0175 98.2657 80.3645 99.1638 81.2625L111.51 93.6084C112.408 94.5064 113.755 94.5064 114.653 93.6084C115.551 92.7104 115.551 91.3633 114.653 90.4653L102.307 78.1195Z" fill="black"/>
</svg>
