<svg width="47" height="48.7" viewBox="0 0 94 97" fill="none" xmlns="http://www.w3.org/2000/svg">
<path d="M93.6357 58.0788C93.072 56.3708 91.5956 55.1812 89.6862 54.8958C88.7859 54.7613 87.7548 54.8186 86.5346 55.0703C84.4079 55.5093 82.8301 55.6765 81.6786 55.7088C86.025 48.3666 89.5592 39.9938 91.5937 32.1122C94.8837 19.3679 93.1256 13.5621 91.0712 10.936C85.6343 3.98506 77.702 0.250935 68.1323 0.136677C63.0273 0.0742216 58.5458 1.0827 56.2079 1.80792C54.0312 1.42364 51.6908 1.20908 49.235 1.1694C44.6316 1.09593 40.5643 2.1 37.0888 4.16361C35.1648 3.5126 32.0767 2.59487 28.5106 2.00925C20.1233 0.631548 13.3634 1.70505 8.41885 5.20001C2.4315 9.43158 -0.34407 16.7837 0.169257 27.0522C0.332288 30.3124 2.15501 40.2319 5.02494 49.6392C6.67435 55.0464 8.43317 59.5366 10.2526 62.9864C12.8328 67.8781 15.5937 70.7588 18.6931 71.7934C20.4303 72.3724 23.5866 72.778 26.9064 70.0115C27.3272 70.5215 27.8886 71.0281 28.6336 71.4987C29.5799 72.0957 30.7369 72.5836 31.8924 72.8728C36.0567 73.9143 39.9573 73.6538 43.2851 72.1938C43.3057 72.7861 43.3215 73.3518 43.3347 73.8405C43.3567 74.6329 43.3788 75.4099 43.4078 76.1366C43.6049 81.0501 43.9391 84.8705 44.929 87.5436C44.9834 87.6906 45.0564 87.9147 45.1335 88.1524C45.6274 89.6653 46.4532 92.1981 48.5543 94.1816C50.7298 96.2364 53.3615 96.8665 55.7717 96.8665C56.9805 96.8665 58.1338 96.7077 59.1454 96.491C62.7512 95.7176 66.8464 94.5398 69.8089 90.3193C72.6098 86.3294 73.9713 80.3201 74.2177 70.8514C74.2496 70.5836 74.279 70.3279 74.3073 70.0843L74.3661 69.5839L75.0259 69.642L75.1959 69.6533C78.8685 69.8209 83.3592 69.0416 86.1171 67.7598C88.2964 66.748 95.2799 63.0591 93.6357 58.0788Z" fill="black"/>
<path d="M87.3561 59.0473C76.4359 61.3012 75.685 57.602 75.685 57.602C87.2147 40.4843 92.0348 18.7559 87.8756 13.4379C76.5281 -1.06836 56.8854 5.79224 56.5575 5.97005L56.4521 5.98916C54.2945 5.54095 51.8803 5.27422 49.1664 5.22977C44.2255 5.14894 40.4773 6.52591 37.633 8.68395C37.633 8.68395 2.59232 -5.75953 4.22226 26.8491C4.56889 33.7861 14.1598 79.3388 25.5992 65.5798C29.7803 60.5484 33.8205 56.2944 33.8205 56.2944C35.8268 57.6281 38.229 58.3085 40.7471 58.0641L40.9428 57.8981C40.8819 58.5226 40.9098 59.1336 41.0211 59.857C38.074 63.1514 38.9402 63.7296 33.0491 64.9431C27.0878 66.1724 30.5896 68.3605 32.8761 68.9329C35.648 69.6262 42.0606 70.6086 46.3934 64.5397L46.2208 65.2322C47.3752 66.1577 48.186 71.2511 48.0501 75.8688C47.9143 80.4862 47.8236 83.6564 48.7331 86.1325C49.6434 88.6087 50.5499 94.1802 58.2947 92.5199C64.7656 91.1323 68.1191 87.5367 68.5858 81.5387C68.9167 77.2748 69.6661 77.9053 69.7131 74.0929L70.3142 72.2883C71.0071 66.5082 70.4243 64.6433 74.4109 65.5107L75.3803 65.5959C78.3141 65.7293 82.1549 65.1235 84.409 64.0753C89.2625 61.8218 92.1413 58.0586 87.3553 59.0473H87.3561Z" fill="#336791"/>
<path d="M39.6841 29.9512C38.7001 29.8142 37.8089 29.941 37.358 30.2826C37.1046 30.4748 37.0261 30.6974 37.0048 30.8506C36.9482 31.2566 37.2324 31.7055 37.4072 31.937C37.9014 32.5924 38.6233 33.0428 39.3379 33.142C39.4414 33.1567 39.5446 33.1633 39.647 33.1633C40.8386 33.1633 41.9221 32.2349 42.0176 31.5497C42.1369 30.6915 40.8918 30.1195 39.6841 29.9516V29.9512ZM72.2845 29.9784C72.1905 29.3057 70.9942 29.114 69.8589 29.2719C68.725 29.4299 67.6256 29.9421 67.7174 30.6162C67.7909 31.1405 68.7371 32.0354 69.857 32.0354C69.9518 32.0354 70.0472 32.0292 70.1434 32.0156C70.891 31.912 71.4396 31.4369 71.7003 31.1632C72.0969 30.7459 72.3267 30.2808 72.2845 29.9784Z" fill="white"/>
<path d="M90.9898 58.7912C90.5734 57.5314 89.2332 57.1262 87.0066 57.5861C80.3954 58.9513 78.0277 58.0057 77.2504 57.4329C82.3892 49.6002 86.6166 40.1319 88.8972 31.2981C89.9775 27.1135 90.5742 23.2273 90.623 20.0597C90.677 16.5831 90.0851 14.0283 88.8645 12.4676C83.9435 6.17611 76.7209 2.80128 67.9782 2.7087C61.9677 2.6411 56.8895 4.18009 55.905 4.61287C53.8319 4.09706 51.5719 3.78037 49.1113 3.73996C44.5993 3.66685 40.6991 4.7477 37.47 6.95093C36.0674 6.4285 32.4425 5.18343 28.0094 4.46886C20.3455 3.23443 14.2553 4.1698 9.90927 7.25035C4.72348 10.9264 2.32941 17.4975 2.79317 26.7807C2.94923 29.9038 4.72788 39.5118 7.53467 48.713C11.2293 60.8236 15.2456 67.6794 19.4712 69.0898C19.9658 69.2547 20.536 69.3701 21.165 69.3701C22.7065 69.3701 24.5964 68.675 26.5627 66.3098C28.961 63.4311 31.4419 60.6224 34.0023 57.887C35.6634 58.779 37.4884 59.2772 39.3548 59.3272C39.3585 59.376 39.3632 59.4249 39.3676 59.4734C39.0464 59.8567 38.7318 60.2456 38.424 60.6399C37.1307 62.2825 36.8616 62.6245 32.6988 63.482C31.5146 63.7267 28.3696 64.3751 28.3234 66.5809C28.2734 68.991 32.0411 70.0031 32.4704 70.1104C33.9663 70.4851 35.4075 70.6699 36.7819 70.6699C40.1244 70.6699 43.066 69.5707 45.4167 67.4439C45.3444 76.0356 45.7024 84.5017 46.7334 87.0811C47.578 89.1929 49.6408 94.3536 56.1569 94.3532C57.1131 94.3532 58.1654 94.2419 59.3232 93.9935C66.1239 92.535 69.0772 89.5276 70.2195 82.8973C70.8308 79.3539 71.8799 70.8926 72.3734 66.3538C73.4148 66.679 74.7554 66.8278 76.2046 66.8274C79.2273 66.8274 82.7152 66.1848 84.9026 65.169C87.3598 64.0272 91.794 61.2255 90.9898 58.7912ZM74.7946 28.1216C74.7722 29.4615 74.5879 30.6779 74.3926 31.9476C74.1822 33.3132 73.9648 34.7251 73.9101 36.4389C73.8561 38.1069 74.0643 39.8409 74.2655 41.5181C74.6724 44.9054 75.0899 48.3926 73.4739 51.8336C73.2054 51.3577 72.9663 50.8658 72.7579 50.3607C72.557 49.8736 72.1208 49.091 71.5168 48.008C69.1671 43.7918 63.6648 33.9187 66.4815 29.8899C67.3205 28.6907 69.4499 27.4578 74.7946 28.1216ZM68.316 5.42186C76.1496 5.5949 82.3462 8.52702 86.7334 14.1363C90.0983 18.4388 86.393 38.0158 75.6664 54.9049C75.5585 54.7677 75.45 54.6309 75.341 54.4946L75.2052 54.3248C77.9771 49.7446 77.4351 45.2129 76.9526 41.1951C76.7543 39.5463 76.5671 37.9889 76.6148 36.526C76.664 34.9756 76.8689 33.6457 77.0672 32.3598C77.3106 30.7753 77.5585 29.1356 77.4902 27.2028C77.5412 27 77.5618 26.7605 77.535 26.4761C77.3605 24.6226 75.2456 19.0755 70.9348 14.0547C68.5767 11.3085 65.138 8.23532 60.4427 6.16251C62.4623 5.74369 65.2239 5.35316 68.316 5.42186ZM24.4819 64.5786C22.3154 67.1849 20.8195 66.6852 20.3275 66.5214C17.1219 65.4515 13.4023 58.6725 10.123 47.9227C7.28535 38.6212 5.62713 29.2679 5.49567 26.6451C5.08149 18.3502 7.0911 12.5694 11.4691 9.46276C18.594 4.4075 30.308 7.43331 35.015 8.96789C34.9474 9.03475 34.8769 9.09721 34.8101 9.16517C27.0859 16.97 27.2692 30.3047 27.2883 31.1199C27.2875 31.4344 27.314 31.8797 27.35 32.4921C27.4829 34.735 27.7304 38.9092 27.0694 43.6364C26.4555 48.0293 27.8089 52.3288 30.7821 55.4329C31.0872 55.7508 31.4079 56.0534 31.743 56.3396C30.4196 57.7577 27.5435 60.8937 24.4819 64.5786ZM32.7359 53.5596C30.3396 51.0577 29.2512 47.5778 29.7495 44.0112C30.4472 39.0176 30.1898 34.6685 30.0514 32.3319C30.0319 32.0049 30.0146 31.7184 30.0047 31.4924C31.1331 30.4913 36.3622 27.6881 40.0914 28.543C41.7929 28.9328 42.8299 30.0923 43.2609 32.0865C45.492 42.4112 43.5561 46.7144 42.0007 50.1726C41.6802 50.885 41.3773 51.5584 41.1188 52.255L40.9183 52.7936C40.4108 54.1551 39.9386 55.4211 39.646 56.6232C37.0984 56.6159 34.6203 55.5269 32.7359 53.5592V53.5596ZM33.1269 67.4836C32.383 67.2977 31.714 66.9747 31.3215 66.7069C31.6494 66.5526 32.2328 66.3425 33.2448 66.1338C38.142 65.1253 38.8984 64.4133 40.55 62.3152C40.9286 61.8339 41.3578 61.2887 41.9523 60.6244L41.953 60.6237C42.8383 59.6318 43.2433 59.8 43.9777 60.1049C44.5729 60.3511 45.1527 61.0976 45.3877 61.9191C45.4989 62.3071 45.6238 63.0433 45.2151 63.6164C41.765 68.4498 36.7375 68.3877 33.1269 67.4836ZM58.7563 91.3461C52.7652 92.6305 50.644 89.572 49.2461 86.0756C48.3439 83.8184 47.9003 73.6395 48.215 62.3985C48.2191 62.249 48.1978 62.1046 48.1566 61.9687C48.1199 61.7003 48.0639 61.4348 47.9892 61.1744C47.5214 59.5388 46.3813 58.1707 45.0135 57.6034C44.4701 57.3782 43.4728 56.9649 42.2743 57.2717C42.5299 56.218 42.9731 55.028 43.4537 53.7396L43.6553 53.1977C43.8822 52.5867 44.1672 51.9537 44.4682 51.2836C46.096 47.6656 48.3252 42.7099 45.9058 31.5145C44.9996 27.3211 41.9732 25.2733 37.3856 25.7491C34.6353 26.0338 32.119 27.144 30.8639 27.7807C30.5941 27.9174 30.3473 28.0496 30.1167 28.1782C30.467 23.9533 31.7904 16.0574 36.7408 11.0616C39.8578 7.91679 44.0089 6.36348 49.0665 6.44724C59.032 6.61036 65.4225 11.7273 69.0291 15.9916C72.1369 19.6658 73.8198 23.3673 74.4913 25.3637C69.4407 24.8497 66.0056 25.8471 64.2644 28.338C60.4762 33.7563 66.3368 44.2724 69.1535 49.3265C69.6702 50.2527 70.1159 51.0533 70.2562 51.3935C71.1734 53.6176 72.3609 55.1026 73.2279 56.1864C73.4937 56.5185 73.7515 56.8407 73.9475 57.1221C72.4178 57.5634 69.6702 58.5829 69.9206 63.6789C69.7186 66.2359 68.2826 78.2076 67.553 82.4373C66.5898 88.0253 64.5347 90.1066 58.7563 91.3465V91.3461ZM83.7632 62.7134C82.199 63.4397 79.5813 63.9846 77.0947 64.1018C74.3481 64.2303 72.9499 63.7939 72.6209 63.5253C72.4667 60.3496 73.6479 60.0179 74.8982 59.6667C75.0946 59.6115 75.2863 59.5575 75.4714 59.4929C75.5863 59.5866 75.7122 59.6795 75.8503 59.7706C78.0578 61.2284 81.9952 61.3857 87.5541 60.2376L87.615 60.2255C86.8652 60.9268 85.5823 61.868 83.7632 62.7134Z" fill="white"/>
</svg>
