<svg width="84" height="36" viewBox="0 0 84 36" fill="none" xmlns="http://www.w3.org/2000/svg">
<rect x="0.5" y="0.5" width="83" height="35" rx="14.5" fill="white" stroke="#A09E9E"/>
<line x1="17" y1="17" x2="32" y2="17" stroke="#A09E9E" stroke-width="2"/>
<line x1="17" y1="22" x2="32" y2="22" stroke="#A09E9E" stroke-width="2"/>
<line x1="17" y1="12" x2="32" y2="12" stroke="#A09E9E" stroke-width="2"/>
<path d="M58 4.64001C51.2928 4.64001 45.84 10.0928 45.84 16.8C45.84 23.5072 51.2928 28.96 58 28.96C64.7072 28.96 70.16 23.5072 70.16 16.8C70.16 10.0928 64.7072 4.64001 58 4.64001ZM58 11.6032C60.0993 11.6032 61.8145 13.3184 61.8145 15.4177C61.8145 17.5169 60.0993 19.2321 58 19.2321C55.9008 19.2321 54.1856 17.5169 54.1856 15.4177C54.1856 13.3184 55.9008 11.6032 58 11.6032ZM51.344 24.1728V23.6096C51.344 21.9968 52.6496 20.6657 54.2879 20.6657H61.7119C63.3248 20.6657 64.6558 21.9713 64.6558 23.6096V24.1728C62.8894 25.76 60.5598 26.7328 57.9998 26.7328C55.4402 26.7328 53.1107 25.76 51.3443 24.1728H51.344Z" fill="#A09E9E"/>
</svg>
