<svg width="49.5" height="44.5" viewBox="0 0 99 89" fill="none" xmlns="http://www.w3.org/2000/svg">
<path d="M0.291626 44.4033C0.291626 51.8386 7.54733 58.7795 18.986 62.692C16.7017 74.1989 18.5769 83.4739 24.8391 87.0877C31.2758 90.8025 40.8652 88.2311 49.9671 80.2695C58.8392 87.9096 67.8056 90.9162 74.0625 87.292C80.4933 83.5668 82.4489 73.663 80.1016 61.7966C92.0159 57.855 98.6804 51.9365 98.6804 44.4033C98.6804 37.1405 91.4115 30.8575 80.1268 26.9701C82.6539 14.6134 80.5127 5.56366 73.991 1.8005C67.7036 -1.8276 58.6327 1.33461 49.6302 9.17435C40.2643 0.853235 31.2831 -1.68714 24.7684 2.08647C18.4868 5.72502 16.6944 15.1687 18.986 26.8884C7.93325 30.7445 0.291626 37.1699 0.291626 44.4033Z" fill="white"/>
<path d="M77.7369 30.8304C76.8069 30.5111 75.869 30.2154 74.9241 29.9435C75.0808 29.3063 75.2257 28.6663 75.3587 28.0238C77.4879 17.6812 76.0958 9.34924 71.3416 6.60649C66.7836 3.97596 59.3287 6.71871 51.7996 13.2749C51.0577 13.9224 50.3323 14.5886 49.624 15.2728C49.1497 14.8178 48.667 14.3717 48.1762 13.9347C40.2856 6.9238 32.3763 3.96977 27.6272 6.72065C23.0734 9.35853 21.7246 17.1917 23.6415 26.9933C23.8322 27.964 24.0475 28.9296 24.2873 29.8893C23.1682 30.2074 22.0873 30.5463 21.0533 30.907C11.8026 34.1342 5.89453 39.1925 5.89453 44.4389C5.89453 49.8578 12.2365 55.293 21.8723 58.5883C22.6536 58.8543 23.4415 59.1007 24.2351 59.3274C23.9773 60.3613 23.7484 61.4023 23.5487 62.449C21.7211 72.0803 23.1484 79.7278 27.6903 82.3494C32.3813 85.0562 40.2546 82.2739 47.9214 75.568C48.5273 75.0378 49.1356 74.4756 49.7447 73.8863C50.5118 74.6269 51.2995 75.346 52.1067 76.0428C59.5329 82.4372 66.8671 85.0194 71.4051 82.3908C76.0919 79.6759 77.6147 71.4604 75.6371 61.4649C75.4863 60.7015 75.3104 59.9218 75.1132 59.1277C75.6661 58.9644 76.2087 58.7957 76.7381 58.62C86.7552 55.2992 93.2723 49.9302 93.2723 44.4389C93.2723 39.1735 87.174 34.0812 77.7369 30.8304Z" fill="#53C1DE"/>
<path d="M75.564 55.0747C75.0864 55.233 74.5961 55.3859 74.0965 55.5341C72.9905 52.0309 71.4978 48.3057 69.6718 44.4574C71.4147 40.7001 72.8493 37.0228 73.9244 33.5422C74.818 33.8014 75.6858 34.0742 76.5219 34.3625C84.6078 37.1474 89.5398 41.2658 89.5398 44.4389C89.5398 47.8189 84.213 52.207 75.5644 55.0747H75.564ZM71.9754 62.1905C72.8497 66.6103 72.9746 70.6064 72.3954 73.7303C71.8749 76.5373 70.8284 78.4086 69.5345 79.1581C66.7808 80.7532 60.8917 78.6799 54.5413 73.2114C53.8131 72.5845 53.0796 71.9151 52.3441 71.207C54.8062 68.5122 57.2668 65.3794 59.6682 61.9007C63.8925 61.5257 67.8833 60.9124 71.5025 60.0754C71.6803 60.7951 71.8389 61.5005 71.9754 62.1905ZM35.6834 78.8826C32.9931 79.8334 30.8504 79.8605 29.5553 79.1133C26.7989 77.5229 25.6535 71.3819 27.2161 63.1455C27.4019 62.1721 27.6147 61.2041 27.8542 60.2425C31.4331 61.0346 35.3949 61.6046 39.6293 61.9483C42.0466 65.3523 44.5783 68.4812 47.1298 71.2213C46.5875 71.7462 46.0324 72.2576 45.465 72.7552C42.0748 75.7208 38.6776 77.8243 35.6837 78.8826H35.6834ZM23.0796 55.0538C18.8189 53.5966 15.3003 51.7028 12.8884 49.6365C10.7213 47.7791 9.62695 45.9352 9.62695 44.4389C9.62695 41.2554 14.3706 37.1943 22.2822 34.4341C23.2752 34.0892 24.2781 33.7734 25.2896 33.4872C26.3832 37.046 27.8174 40.767 29.5483 44.5298C27.795 48.3487 26.3402 52.1288 25.2366 55.7295C24.5122 55.522 23.7929 55.2967 23.0796 55.0538ZM27.3047 26.2759C25.6623 17.8778 26.7529 11.5429 29.4973 9.95328C32.4207 8.25996 38.8845 10.6746 45.6974 16.7277C46.1328 17.1147 46.5702 17.5198 47.0083 17.9389C44.47 20.6666 41.9615 23.7719 39.5651 27.1562C35.4556 27.5374 31.5217 28.1495 27.9052 28.9695C27.6825 28.0767 27.4822 27.1784 27.3047 26.2755V26.2759ZM64.9954 35.5888C64.1412 34.1123 63.2553 32.6544 62.3384 31.2162C65.1265 31.5683 67.7975 32.0365 70.3056 32.6096C69.5527 35.0246 68.6142 37.5499 67.509 40.1386C66.7015 38.6054 65.8635 37.0885 64.9954 35.5888ZM49.6251 20.6081C51.3467 22.4744 53.0711 24.5586 54.7671 26.8196C51.3266 26.6569 47.8804 26.6561 44.4399 26.8172C46.1375 24.5771 47.8765 22.4961 49.6251 20.6081ZM34.1563 35.6143C33.2991 37.1021 32.4767 38.6097 31.6899 40.1359C30.6029 37.5561 29.6728 35.0196 28.9134 32.5701C31.4064 32.0117 34.065 31.5555 36.835 31.2092C35.9077 32.6564 35.0146 34.1252 34.1563 35.6143ZM36.9146 57.9351C34.053 57.6155 31.3542 57.1825 28.8619 56.6396C29.6334 54.1468 30.5839 51.5558 31.6941 48.9206C32.4843 50.4479 33.3103 51.9564 34.1714 53.4449C35.05 54.9632 35.9647 56.4604 36.9146 57.9351ZM49.7284 68.5335C47.9592 66.6231 46.1947 64.5103 44.4712 62.2377C46.1441 62.3035 47.8498 62.3368 49.5834 62.3368C51.3645 62.3368 53.1252 62.2969 54.858 62.2195C53.1565 64.5335 51.4384 66.6494 49.7284 68.5335ZM67.5446 48.7863C68.7124 51.4501 69.6969 54.0272 70.4789 56.4778C67.9452 57.0563 65.21 57.5222 62.3279 57.8682C63.2515 56.4031 64.1459 54.9197 65.0105 53.419C65.8894 51.8937 66.7343 50.3491 67.5446 48.7863ZM61.7769 51.5531C60.4533 53.8539 59.0553 56.111 57.585 58.3209C54.9926 58.5063 52.3135 58.6018 49.5834 58.6018C46.8645 58.6018 44.2194 58.5171 41.6722 58.3519C40.1639 56.1471 38.7394 53.8861 37.4019 51.5736C36.0706 49.2733 34.8271 46.9233 33.6741 44.5286C34.8242 42.1332 36.0639 39.782 37.3907 37.4798V37.4806C38.717 35.178 40.1302 32.9266 41.6274 30.7313C44.226 30.5347 46.8904 30.4318 49.5838 30.4318C52.2891 30.4318 54.957 30.5355 57.5549 30.7336C59.0369 32.9255 60.4411 35.1691 61.7649 37.4601C63.0962 39.7571 64.3525 42.0969 65.5318 44.4756C64.3646 46.8786 63.1123 49.2393 61.7773 51.5531H61.7769ZM69.4773 9.84223C72.4031 11.5309 73.5412 18.3402 71.7028 27.27C71.5823 27.8517 71.4513 28.4312 71.3099 29.0082C67.6849 28.1712 63.7483 27.5482 59.6268 27.1612C57.2258 23.7402 54.7381 20.6294 52.2408 17.937C52.8952 17.3057 53.5652 16.6907 54.2501 16.0927C60.7011 10.4749 66.7302 8.25687 69.4773 9.84223Z" fill="white"/>
<path d="M49.5834 36.6312C53.8928 36.6312 57.3859 40.127 57.3859 44.4388C57.3859 48.7511 53.8928 52.2469 49.5834 52.2469C45.2744 52.2469 41.7809 48.7511 41.7809 44.4388C41.7809 40.127 45.2744 36.6312 49.5834 36.6312Z" fill="#53C1DE"/>
</svg>
