<svg width="50" height="50" viewBox="0 0 188 188" fill="none" xmlns="http://www.w3.org/2000/svg">
<path d="M53.2657 131.6H65.7994C66.6303 131.6 67.4276 131.271 68.0151 130.683C68.6037 130.096 68.9331 129.298 68.9331 128.466V119.066H125.333V128.466C125.332 129.298 125.663 130.096 126.25 130.683C126.838 131.271 127.635 131.6 128.466 131.6H140.999C141.83 131.6 142.628 131.271 143.215 130.683C143.804 130.096 144.133 129.298 144.133 128.466V97.1321V97.1331C144.133 96.3012 143.804 95.5039 143.215 94.9164C142.628 94.3289 141.83 93.9994 140.999 93.9994H128.466C127.635 93.9994 126.838 94.3289 126.25 94.9164C125.663 95.5039 125.332 96.3012 125.333 97.1331V112.799H112.799V109.666C112.799 108.835 112.47 108.038 111.882 107.45C111.295 106.863 110.498 106.532 109.666 106.533H100.266V31.3331H125.332L125.333 46.9994C125.332 47.8303 125.663 48.6276 126.25 49.2151C126.838 49.8037 127.635 50.1331 128.466 50.1331H140.999C141.83 50.1331 142.628 49.8037 143.215 49.2151C143.804 48.6276 144.133 47.8303 144.133 46.9994V15.6652C144.133 14.8343 143.804 14.037 143.215 13.4495C142.628 12.862 141.83 12.5315 140.999 12.5325H128.466C127.635 12.5315 126.838 12.862 126.25 13.4495C125.663 14.037 125.332 14.8343 125.333 15.6652V25.0652H68.9331V15.6652C68.9331 14.8343 68.6037 14.037 68.0151 13.4495C67.4276 12.862 66.6303 12.5315 65.7994 12.5325H53.2657C52.4348 12.5315 51.6375 12.862 51.05 13.4495C50.4625 14.037 50.132 14.8343 50.1331 15.6652V46.9994C50.132 47.8303 50.4625 48.6276 51.05 49.2151C51.6375 49.8037 52.4348 50.1331 53.2657 50.1331H65.7994C66.6303 50.1331 67.4276 49.8037 68.0151 49.2151C68.6037 48.6276 68.9331 47.8303 68.9331 46.9994V31.3331H93.9994V106.533H84.5994C83.7685 106.532 82.9712 106.863 82.3837 107.45C81.7951 108.038 81.4657 108.835 81.4657 109.666V112.799H68.9331V97.1331C68.9331 96.3012 68.6037 95.5039 68.0151 94.9164C67.4276 94.3289 66.6303 93.9994 65.7994 93.9994H53.2657C52.4348 93.9994 51.6375 94.3289 51.05 94.9164C50.4625 95.5039 50.132 96.3012 50.1331 97.1331V128.467V128.466C50.132 129.298 50.4625 130.096 51.05 130.683C51.6375 131.271 52.4348 131.6 53.2657 131.6H53.2657ZM131.6 114.097L137.866 107.83V111.503L131.6 117.77V114.097ZM132.897 125.334L137.866 120.364V125.334H132.897ZM136.569 100.267L131.6 105.236V100.266L136.569 100.267ZM131.6 18.7989H137.866V43.8652H131.6V18.7989ZM62.6658 43.8652H56.3994V18.7989H62.6658V43.8652ZM56.3994 114.097L62.6658 107.83V111.503L56.3994 117.77V114.097ZM57.6961 125.334L62.6658 120.364V125.334H57.6961ZM61.3691 100.266L56.3995 105.236V100.266H61.3691Z" fill="black"/>
</svg>
