<svg width="35" height="35" viewBox="0 0 146 146" fill="none" xmlns="http://www.w3.org/2000/svg">
<path d="M65.992 4.32141C40.7632 4.32141 20.2064 24.8786 20.2064 50.107C20.2064 75.3358 40.763 95.8926 65.992 95.8926C74.1678 95.8926 82.3436 93.6732 89.4688 89.352L91.2205 88.301L112.244 109.325C113.646 110.726 115.515 111.427 117.384 111.427C119.369 111.427 121.238 110.609 122.523 109.325C123.925 107.924 124.625 106.055 124.625 104.186C124.625 102.317 123.807 100.331 122.523 99.0462L102.084 78.4896L103.953 75.8034C109.093 68.2118 111.779 59.3344 111.779 50.2242C111.779 24.8786 91.2215 4.32181 65.9931 4.32181L65.992 4.32141ZM65.992 83.5118C47.5376 83.5118 32.5872 68.5614 32.5872 50.107C32.5872 31.6526 47.5376 16.7022 65.992 16.7022C84.4464 16.7022 99.3968 31.6526 99.3968 50.107C99.3968 68.5614 84.4464 83.5118 65.992 83.5118Z" fill="black"/>
<path d="M91.688 44.2673C91.4542 43.0989 90.4032 42.7486 90.4032 42.7486L85.848 43.2155L81.7596 33.6375C81.4092 32.5864 80.0079 30.7175 77.321 30.4836L53.4938 30.4853H53.3772C50.6911 30.7191 49.4063 32.4708 48.9386 33.6391L44.9676 43.2171L40.6463 42.7503C40.6463 42.7503 39.7117 42.9841 39.3614 44.2689C39.1276 45.4372 38.7772 47.5393 41.4634 48.2399L42.982 48.3564C41.1131 51.8606 39.244 58.0508 44.2669 63.1902C44.3834 63.3067 45.6682 64.2412 46.2524 64.475V67.7446C46.2524 68.913 47.1869 69.8466 48.3544 69.8466H51.1578C52.3261 69.8466 53.2598 68.9121 53.2598 67.7446V64.8246H77.671V67.7446C77.671 68.913 78.6055 69.8466 79.7729 69.8466H82.5764C83.7447 69.8466 84.6783 68.9121 84.6783 67.7446V64.708C85.4963 64.4742 86.0797 64.0074 86.6638 63.4232C91.8032 58.2838 90.168 52.0936 88.4155 48.4728L89.7003 48.3563C92.2708 47.6548 92.0378 45.552 91.6875 44.2672L91.688 44.2673ZM52.2096 35.0405C52.3261 34.8067 52.56 34.2225 53.611 34.106H77.2046C78.2556 34.2225 78.6059 34.8067 78.6059 34.924L82.5769 44.3846H48.2377L52.2096 35.0405ZM50.458 56.2981C48.7063 56.2981 47.4214 54.8967 47.4214 53.2615C47.4214 51.5098 48.8227 50.2249 50.458 50.2249C52.2096 50.2249 53.4945 51.6263 53.4945 53.2615C53.4945 54.8958 52.0932 56.2981 50.458 56.2981V56.2981ZM80.0084 56.2981C78.2567 56.2981 76.9718 54.8967 76.9718 53.2615C76.9718 51.5098 78.3731 50.2249 80.0084 50.2249C81.76 50.2249 83.045 51.6263 83.045 53.2615C83.045 54.8958 81.6436 56.2981 80.0084 56.2981Z" fill="black"/>
</svg>
