<svg width="50" height="50" viewBox="0 0 188 188" fill="none" xmlns="http://www.w3.org/2000/svg">
<path d="M142.7 131.106L141.649 133.208V133.207C140.485 135.555 138.686 137.53 136.458 138.907C134.229 140.285 131.658 141.011 129.038 141.001H58.9619C56.3412 141.011 53.7709 140.285 51.5415 138.907C49.3122 137.53 47.514 135.555 46.3495 133.207L45.2983 131.105V131.106C43.8421 128.191 43.9985 124.731 45.7106 121.96C47.4238 119.188 50.4495 117.501 53.7068 117.501H134.292C137.549 117.502 140.575 119.189 142.287 121.96C144 124.731 144.155 128.191 142.699 131.106H142.7ZM115.15 58.75C115.149 57.4523 114.098 56.4011 112.8 56.4H75.2C73.9023 56.4011 72.8511 57.4523 72.85 58.75V75.2H115.15V58.75ZM68.15 112.8H54.05V58.75C54.0563 53.1425 56.2867 47.7668 60.2513 43.8013C64.217 39.8367 69.5925 37.6065 75.2 37.6H82.25V32.9H78.8698C76.6981 32.9 74.6481 31.9002 73.3128 30.189C71.9762 28.478 71.503 26.2464 72.0297 24.14L74.3797 14.74C74.7595 13.2146 75.6397 11.859 76.8797 10.8919C78.1187 9.92359 79.6474 9.39904 81.2199 9.40009H106.78C108.353 9.39904 109.88 9.92359 111.12 10.8909C112.359 11.8582 113.24 13.2125 113.62 14.7379L115.97 24.14C116.497 26.2467 116.024 28.478 114.687 30.1891C113.352 31.9002 111.302 32.9 109.13 32.9H105.75V37.6H112.8C118.408 37.6063 123.783 39.8367 127.749 43.8014C131.714 47.7671 133.944 53.1425 133.95 58.75V112.8H119.85V58.75C119.848 56.8805 119.104 55.0886 117.783 53.7667C116.462 52.4459 114.67 51.7021 112.8 51.7H75.2001C73.3306 51.7021 71.5387 52.4459 70.2168 53.7667C68.8959 55.0886 68.1521 56.8805 68.15 58.75V112.8ZM86.95 37.6H101.05V32.9H86.95V37.6ZM72.85 112.8H115.15V79.9H72.85V112.8Z" fill="black"/>
</svg>
