<svg width="50" height="50" viewBox="0 0 188 188" fill="none" xmlns="http://www.w3.org/2000/svg">
<path d="M94.0001 6.28619C75.7235 6.28619 58.1941 13.547 45.2704 26.4709C32.3468 39.3949 25.0857 56.9243 25.0857 75.2006C25.0857 93.4768 32.3465 111.006 45.2704 123.93C58.1944 136.854 75.7238 144.115 94.0001 144.115C112.276 144.115 129.806 136.854 142.73 123.93C155.653 111.006 162.914 93.4768 162.914 75.2006C162.89 56.9315 155.622 39.4161 142.703 26.4978C129.785 13.579 112.269 6.3109 94.0006 6.28673L94.0001 6.28619ZM141.932 114.169C141.932 117.393 140.211 120.371 137.42 121.984C134.628 123.595 131.188 123.595 128.395 121.984C125.603 120.371 123.884 117.393 123.884 114.169V84.2229H114.859V114.169C114.584 117.184 112.813 119.86 110.145 121.294C107.478 122.727 104.269 122.727 101.601 121.294C98.933 119.86 97.1633 117.184 96.8872 114.169V84.2229H87.9835V114.169C87.9835 117.393 86.263 120.371 83.4712 121.984C80.6786 123.595 77.2396 123.595 74.4467 121.984C71.6549 120.371 69.9344 117.393 69.9344 114.169V84.2229H46.0662C44.4055 84.2229 43.0585 82.8759 43.0585 81.2141V48.2174C43.0585 44.9935 44.778 42.0151 47.5708 40.4026C50.3626 38.7901 53.8024 38.7901 56.5942 40.4026C59.3868 42.015 61.1065 44.9935 61.1065 48.2174V63.1672H70.131V36.2295C70.131 33.0056 71.8505 30.0271 74.6433 28.4146C77.4351 26.8032 80.875 26.8032 83.6668 28.4146C86.4594 30.0271 88.179 33.0056 88.179 36.2295V63.1672H97.2036V36.2295C97.4795 33.2142 99.2493 30.5382 101.917 29.104C104.585 27.671 107.794 27.671 110.461 29.104C113.129 30.5381 114.9 33.2145 115.176 36.2295V63.1672H124.2V36.2295C124.2 33.0056 125.92 30.0271 128.712 28.4146C131.504 26.8032 134.944 26.8032 137.736 28.4146C140.528 30.0271 142.248 33.0056 142.248 36.2295L141.932 114.169ZM132.907 33.2535C131.247 33.2535 129.9 34.6005 129.9 36.2612V66.1747C129.9 66.9731 129.583 67.7378 129.018 68.3023C128.455 68.8667 127.689 69.1835 126.892 69.1835H112.047C110.386 69.1835 109.039 67.8365 109.039 66.1747V36.229C109.039 35.4316 108.723 34.6669 108.158 34.1024C107.595 33.538 106.829 33.2212 106.032 33.2212C104.37 33.2212 103.024 34.5682 103.024 36.2289V66.1746C103.024 66.973 102.707 67.7378 102.143 68.3022C101.578 68.8667 100.813 69.1835 100.015 69.1835H84.9751C83.3144 69.1835 81.9674 67.8364 81.9674 66.1747V36.229C81.9674 35.4316 81.6505 34.6668 81.0861 34.1024C80.5228 33.538 79.7569 33.2212 78.9596 33.2212C77.2978 33.2212 75.9519 34.5682 75.9519 36.2289V66.1746C75.9519 66.973 75.635 67.7378 75.0706 68.3022C74.5062 68.8666 73.7414 69.1834 72.9441 69.1834H57.9041C56.2423 69.1834 54.8953 67.8364 54.8953 66.1746V48.1269C54.8953 46.4662 53.5493 45.1192 51.8875 45.1192C50.2268 45.1192 48.8798 46.4662 48.8798 48.1269V78.2069H73.0346C73.8319 78.2069 74.5967 78.5237 75.1611 79.0882C75.7256 79.6526 76.0424 80.4174 76.0424 81.2147V114.168C76.0424 114.966 76.3592 115.731 76.9236 116.295C77.487 116.859 78.2528 117.176 79.0502 117.176C79.8475 117.176 80.6133 116.859 81.1767 116.295C81.7411 115.731 82.0579 114.966 82.0579 114.168V81.2147C82.0579 79.554 83.405 78.207 85.0657 78.207H100.015C100.814 78.207 101.579 78.5238 102.143 79.0882C102.707 79.6526 103.024 80.4174 103.024 81.2147V114.168C103.024 114.966 103.341 115.731 103.904 116.295C104.469 116.859 105.234 117.176 106.032 117.176C106.829 117.176 107.595 116.859 108.159 116.295C108.723 115.731 109.04 114.966 109.04 114.168V81.2147C109.04 79.554 110.387 78.207 112.048 78.207H127.088C127.886 78.207 128.651 78.5239 129.215 79.0883C129.779 79.6527 130.095 80.4175 130.095 81.2148V114.169C130.095 114.966 130.412 115.731 130.977 116.295C131.541 116.859 132.306 117.176 133.104 117.176C133.902 117.176 134.666 116.859 135.231 116.295C135.795 115.731 136.112 114.966 136.112 114.169V36.2291C136.105 35.4097 135.764 34.6292 135.168 34.0669C134.571 33.5056 133.771 33.2108 132.953 33.2517L132.907 33.2535Z" fill="black"/>
</svg>
