<svg width="50" height="50" viewBox="0 0 252 216" fill="none" xmlns="http://www.w3.org/2000/svg">
<path d="M191.325 113.724C184.782 109.849 161.651 123.322 161.286 128.775C160.936 134.031 185.151 139.283 191.325 135.164C197.501 131.046 197.868 117.601 191.325 113.724V113.724Z" fill="#A39D9D"/>
<path d="M158.15 61.8391H127.322H96.4937C65.6657 61.8391 66.6927 94.7256 66.6927 94.7256H187.953C187.949 94.7256 188.978 61.8391 158.148 61.8391H158.15Z" fill="#A39D9D"/>
<path d="M63.3197 113.724C56.7767 117.599 57.1457 131.045 63.3197 135.164C69.4972 139.283 93.7102 134.029 93.3587 128.775C92.9915 123.324 69.8627 109.848 63.3197 113.724V113.724Z" fill="#A39D9D"/>
<path d="M222.78 13.4236C166.09 -22.8344 126 25.8531 126 25.8531C126 25.8531 85.9057 -22.8364 29.2197 13.4216C-27.4703 49.6816 -5.00279 179.922 126 215.807C257.005 179.922 279.47 49.6816 222.78 13.4216V13.4236ZM201.553 97.2986L200.786 99.6287C203.317 102.904 205.762 108.228 205.762 116.642V133.095C205.762 133.095 207.403 136.068 202.338 139.46V153.085C202.338 158.452 197.987 162.804 192.621 162.804H181.572C176.205 162.804 171.853 158.453 171.853 153.085V147.22C160.867 148.419 146.386 149.185 127.322 149.185C108.258 149.185 93.7773 148.417 82.7913 147.22V153.085C82.7913 158.452 78.4398 162.804 73.0723 162.804H62.0233C56.6563 162.804 52.3063 158.453 52.3063 153.085V139.46C47.2418 136.07 48.8786 133.095 48.8786 133.095V116.642C48.8786 108.226 51.3239 102.906 53.8571 99.6287L53.0934 97.2986C53.0934 97.2986 36.3944 98.2869 36.3944 89.3611C36.3944 80.4371 55.5604 84.7966 55.5604 84.7966V92.0351L59.4218 93.3027C59.5683 88.5683 60.828 74.5642 70.4178 64.6697C76.9278 57.9527 85.7008 54.5487 96.4978 54.5487H158.153C168.95 54.5487 177.721 57.953 184.233 64.6697C193.823 74.5622 195.08 88.5642 195.229 93.3027L199.09 92.0351V84.7966C199.09 84.7966 218.256 80.4372 218.256 89.3611C218.248 98.2871 201.551 97.2986 201.551 97.2986H201.553Z" fill="#FF0000"/>
</svg>
