<svg width="240" height="240" viewBox="0 0 240 240" fill="none" xmlns="http://www.w3.org/2000/svg">
<path d="M119.997 9.59998C78.3942 9.59998 44.6605 43.3244 44.6605 84.936C44.6605 120.357 69.1536 149.99 102.089 158.05L119.998 182.402L137.915 158.053C170.863 149.993 195.343 120.356 195.343 84.9315C195.343 43.3258 161.609 9.60238 120.001 9.60238L119.997 9.59998Z" fill="black"/>
<path d="M115.491 81.1945H123.508C123.508 81.1945 124.41 80.8937 124.51 79.9919C124.811 79.4905 124.911 78.7892 124.911 78.7892H118.598L113.988 78.7899C113.988 78.7899 114.088 79.4912 114.389 79.9925C114.59 80.8943 115.491 81.1945 115.491 81.1945H115.491Z" fill="white"/>
<path d="M109.378 85.8049C108.977 85.6044 108.677 85.4038 108.376 85.1037C107.374 83.9011 107.374 83.8008 107.374 83.8008C107.575 84.2019 107.675 84.502 107.775 84.7026C108.075 85.2033 108.676 85.6044 109.378 85.8049H109.378Z" fill="white"/>
<path d="M115.491 83.8006C115.592 83.9009 117.796 83.9009 119.5 83.8006C121.103 83.8006 123.408 83.9009 123.508 83.8006C123.708 83.6 125.311 80.1927 125.311 80.1927L123.608 83.3994L123.307 83.7002H115.692L115.391 83.3994L113.688 80.1927C113.787 80.293 115.391 83.7003 115.491 83.8006H115.491Z" fill="white"/>
<path d="M81.5203 70.3723C82.3218 70.4726 82.8232 71.0736 83.2237 71.0736C83.4242 71.0736 83.725 70.7728 84.0252 70.4726V69.9712C83.9249 69.9712 83.7244 70.0715 83.4242 70.0715C82.8232 70.0715 83.3239 69.4705 83.2237 69.3702C83.1234 69.27 82.5224 69.7713 82.1213 69.5708C81.7202 69.3702 82.3219 68.8695 82.7223 68.2679C83.0231 67.6669 82.622 67.4664 81.8205 67.2658C81.019 66.965 78.9145 67.4664 78.5135 67.8668C78.2127 68.1676 80.5176 69.6703 80.5176 69.6703C80.5176 69.6703 80.8184 70.0714 80.4173 69.8709C80.0162 69.6703 80.5176 70.0714 80.5176 70.0714C80.5176 70.0714 80.7182 70.1717 80.5176 70.1717C80.5176 70.1717 80.5176 70.0714 80.4173 70.0714C80.1165 69.9712 78.6138 69.2699 78.4132 68.8688C78.1131 68.4677 77.111 69.0694 76.9104 69.0694C76.8102 69.0694 77.9125 69.2699 78.1131 69.4705C78.3136 69.671 77.5121 69.4705 77.4118 69.671C77.3115 69.7713 76.8108 70.1724 76.51 70.3723C76.51 70.4725 76.6103 70.6731 76.7106 70.7734C76.8102 70.873 76.9104 70.9733 77.0107 71.0735C77.3115 71.0735 77.712 70.9733 77.8122 70.7727C78.0128 70.4719 79.3157 70.5722 80.017 70.5722C80.7189 70.5722 80.6186 70.272 81.5204 70.3723L81.5203 70.3723Z" fill="white"/>
<path d="M74.806 86.6056C74.6055 87.6077 74.5052 98.1298 74.4049 99.7335C74.9063 99.9341 75.8081 100.535 75.9084 100.635C76.1089 100.836 75.6075 89.5122 75.407 88.0089C75.2071 86.6058 75.0066 85.5035 74.806 86.6058V86.6056Z" fill="white"/>
<path d="M106.573 94.6228H105.671C105.371 94.6228 105.07 94.9236 105.07 95.2238V100.635C105.07 100.936 105.371 101.236 105.671 101.236H106.573C106.874 101.236 107.174 100.935 107.174 100.635V95.2238C107.175 94.923 106.874 94.6228 106.573 94.6228Z" fill="white"/>
<path d="M98.3554 94.6228H83.424C82.3216 94.6228 81.7206 95.3241 81.7206 96.4263V100.936C81.7206 102.038 82.6224 102.84 83.6244 102.84L98.3553 103.341C99.4576 103.341 100.059 102.74 100.059 101.638V96.7276C100.059 95.7249 99.4577 94.6225 98.3553 94.6225L98.3554 94.6228Z" fill="white"/>
<path d="M98.3554 85.0025L96.3513 78.7895C96.3513 78.7895 95.7503 77.3863 95.7503 77.5869C95.65 77.7874 95.7503 78.4887 95.7503 78.4887C95.7503 78.4887 94.8485 78.2881 93.1445 77.9873C91.4411 77.6865 87.2324 76.885 83.4239 76.885C83.4239 76.885 81.7205 76.7847 80.1169 77.2861L78.1128 77.9873C78.1128 77.9873 78.3133 82.7971 80.4178 83.7998C82.5223 84.8018 84.4261 84.6013 84.4261 84.6013L93.4448 85.0024C93.4454 85.0024 96.1508 85.1027 98.3555 85.0024L98.3554 85.0025ZM90.2386 83.5993C88.9357 82.6975 88.9357 81.0938 88.9357 81.0938C88.9357 79.19 90.5387 78.5884 90.7392 78.4881C90.8395 78.3878 90.6389 78.3878 89.6369 78.3878C88.6348 78.3878 87.3318 77.9867 87.6327 78.2875C87.8333 78.4881 88.5345 80.4923 88.2337 81.9951C88.0332 83.0974 87.0311 83.7986 86.4302 84.0995H86.2296H85.1273C84.2255 84.0995 83.9247 84.0995 82.7221 83.3983C81.6198 82.697 81.4192 81.3941 81.5195 80.5926C81.6198 79.7911 81.8203 79.39 81.8203 79.39C82.4213 78.0871 83.5237 77.6866 84.1254 77.5864C82.8225 77.787 81.9206 78.3879 81.42 79.4903C80.819 80.6929 81.3197 82.2959 81.5203 82.8976C81.7208 83.4986 83.3238 84.3007 81.2194 83.3989C79.115 82.4971 78.3135 78.3885 78.3135 78.3885L78.514 78.188C78.9151 77.7869 82.422 77.2862 84.727 77.2862C87.032 77.2862 94.7483 78.6893 95.2492 78.9896C95.7505 79.1901 96.6523 82.3969 97.0527 83.7994C96.8521 83.4986 96.5513 83.0981 96.3514 82.7973C96.0506 82.1963 95.2491 80.1916 94.848 79.791C94.4469 79.3899 94.0465 79.5905 94.0465 79.5905C94.0465 79.5905 94.9483 79.8913 94.6475 81.4943C94.4469 83.0974 92.9441 83.9998 92.9441 83.9998C92.9441 83.9998 92.543 84.2003 93.2449 84.2003H95.3493C96.0506 84.2003 96.3514 84.1001 96.3514 84.1001C96.3514 84.1001 96.9524 84.3006 97.1529 84.4009V84.5011C97.1529 84.6014 97.0526 84.9022 97.0526 84.9022C96.8521 84.9022 96.3514 85.0025 96.1508 84.9022C96.0505 84.802 95.85 84.6014 95.85 84.6014L87.0312 84.2003C87.933 83.9998 90.3383 84.1001 90.6392 84.1001C90.8397 84.0004 90.2387 83.5994 90.2387 83.5994L90.2386 83.5993Z" fill="white"/>
<path d="M84.225 77.5871C84.3252 77.5871 84.5258 77.4868 84.6261 77.4868C84.6261 77.4868 84.4255 77.4868 84.225 77.5871Z" fill="white"/>
<path d="M97.8538 89.5126L86.6304 89.4124C86.0295 89.4124 85.7286 89.7132 85.7286 90.3142C85.7286 90.9151 86.0295 91.4165 86.6304 91.4165L97.954 91.6171C98.5549 91.6171 99.0563 91.3162 99.0563 90.615C99.0563 89.9137 98.4553 89.5126 97.8537 89.5126L97.8538 89.5126ZM87.1319 89.5126L91.2405 89.6129H86.4307C86.7308 89.413 87.1319 89.5126 87.1319 89.5126ZM90.6389 91.0161H90.1375L86.7302 90.9158C86.7302 90.9158 85.8284 90.8155 85.9287 90.1143C86.0289 89.8135 86.2295 89.6129 86.43 89.6129L91.6409 89.8135V89.9137H90.8394V90.7153H90.9396V90.1143H91.441V91.1163H90.9396L90.6389 91.0161ZM98.3553 90.8155C97.9542 91.3169 96.4515 91.2166 96.4515 91.2166L92.1423 91.1163V89.8135H93.9459V91.1163H94.4472V89.8135H97.8545C97.8545 89.8135 97.9548 90.3148 97.4535 90.3148C97.0524 90.3148 97.5537 90.8162 97.5537 90.8162L97.9542 90.8155L98.3553 90.3141C98.3553 90.2145 98.7564 90.3148 98.3553 90.8155L98.3553 90.8155Z" fill="white"/>
<path d="M86.3296 90.0141H86.7307V90.6151H86.3296V90.0141Z" fill="white"/>
<path d="M81.8212 72.6775H84.7271C85.3281 72.6775 87.1323 72.878 87.3329 72.878C87.5335 72.878 88.5355 73.1788 88.5355 73.1788C88.5355 73.1788 89.4373 73.3794 89.0369 73.0786C88.7361 72.7778 85.429 72.3773 85.429 72.3773H81.9214L81.8212 72.6775Z" fill="white"/>
<path d="M87.0317 80.795C87.0317 81.8974 86.0296 82.7991 84.827 82.7991C83.6243 82.7991 82.6222 81.8973 82.6222 80.795C82.6222 80.5945 82.6222 80.3939 82.7225 80.194C82.522 80.4948 82.522 80.795 82.522 81.0958C82.522 82.2984 83.524 83.2003 84.827 83.2003C86.1299 83.2003 87.132 82.2985 87.132 81.0958C87.132 80.795 87.0318 80.4948 86.9315 80.194C86.9315 80.3939 87.0318 80.5945 87.0318 80.795H87.0317Z" fill="white"/>
<path d="M93.546 81.2948C93.546 80.994 93.4458 80.6938 93.3455 80.4933C93.4458 80.6938 93.4458 80.7941 93.4458 80.9947C93.4458 81.9967 92.544 82.7982 91.5419 82.7982C90.4396 82.7982 89.6381 81.9967 89.6381 80.9947C89.6381 80.7941 89.6381 80.6938 89.7384 80.4933C89.6381 80.7941 89.5378 80.9947 89.5378 81.2948C89.5378 82.2969 90.4396 83.1986 91.6423 83.1986C92.6437 83.1986 93.5461 82.3971 93.5461 81.2948H93.546Z" fill="white"/>
<path d="M81.9214 77.888C81.3205 77.7877 80.1179 78.2891 80.218 78.2891C80.3183 78.2891 81.5209 78.7905 81.5209 78.7905C82.1212 78.8901 82.5223 77.888 81.9214 77.888H81.9214Z" fill="white"/>
<path d="M114.49 58.3465H124.511C124.511 58.3465 125.513 58.3465 125.412 57.8451C125.312 57.3437 121.404 57.1439 120.101 57.1439H119.5H118.899C117.596 57.1439 113.689 57.3444 113.588 57.8451C113.488 58.3465 114.49 58.3465 114.49 58.3465V58.3465Z" fill="white"/>
<path d="M164.494 83.8006C164.494 83.8006 163.793 78.1886 162.99 76.1844C162.089 74.1803 159.884 72.7771 159.884 72.6768V72.4763C159.884 72.2757 160.585 71.8753 161.087 71.775C161.588 71.775 162.49 71.2737 162.69 70.9735C162.89 70.6727 162.991 69.2701 162.69 68.3677C162.389 67.4659 160.485 66.5642 159.884 66.4639C159.183 66.3636 157.379 66.2634 156.978 66.2634C156.577 66.3636 155.575 66.7647 155.375 66.8643C155.174 67.0656 155.074 68.0676 155.074 68.0676C155.074 68.0676 154.874 70.1721 154.974 70.6734L155.074 71.1747C155.074 71.1747 155.876 71.4756 156.076 71.6761C156.176 71.7764 156.177 71.9769 156.177 71.9769C156.177 71.9756 152.569 72.0759 152.269 72.0759C152.068 72.0759 151.367 72.1761 150.966 72.2764H149.863C149.863 72.2764 147.659 69.6707 146.857 69.17C146.156 68.569 142.849 64.0595 142.849 64.0595H143.851V64.7607H144.252V61.554C144.252 61.2532 143.35 61.1529 143.35 61.1529C143.35 61.1529 139.643 60.8521 139.442 60.8521C139.041 60.451 138.44 59.85 137.639 59.4489C136.436 58.7477 133.931 58.4469 133.931 58.4469L131.226 58.1461L127.217 57.8452C127.217 57.8452 126.416 57.3439 124.712 57.0437C124.111 56.9435 123.309 56.8432 122.507 56.7429H122.407C121.706 56.7429 120.503 56.6426 119.501 56.6426H119.3H119.1C118.198 56.6426 116.895 56.7429 116.194 56.7429H116.094C115.292 56.8432 114.491 56.9435 113.889 57.0437C112.286 57.3445 111.383 57.8452 111.383 57.8452L107.375 58.1461L104.969 58.4475C104.969 58.4475 102.464 58.7483 101.262 59.4496C100.561 59.8507 99.8587 60.4517 99.4583 60.8528C99.2578 60.8528 95.5504 61.1536 95.5504 61.1536C95.5504 61.1536 94.6486 61.2538 94.6486 61.5547V64.7614H95.0497L95.0483 64.0588H96.0504C96.0504 64.0588 92.7434 68.6687 92.0421 69.1693C91.3409 69.7703 89.0358 72.2758 89.0358 72.2758H87.9335C87.5324 72.1755 86.9314 72.0752 86.6306 72.0752C86.3298 72.0752 82.7226 71.9749 82.7226 71.9749C82.7226 71.9749 82.7226 71.7744 82.8229 71.6741C82.9232 71.5739 83.825 71.1728 83.825 71.1728C83.825 71.1728 83.9253 71.1728 83.9253 70.6714C84.0255 70.0718 83.9253 68.0677 83.9253 68.0677C83.9253 68.0677 83.9253 67.0656 83.7247 66.9653C83.6244 66.8651 82.5221 66.3643 82.1217 66.3643C81.7206 66.2641 79.9169 66.3643 79.2157 66.5649C78.5144 66.6652 76.6099 67.6672 76.41 68.4687C76.1092 69.3705 76.3097 70.6735 76.41 71.0745C76.6105 71.3753 77.5123 71.876 78.013 71.876C78.5144 71.876 79.3159 72.2771 79.2157 72.5772V72.7778C79.2157 72.8781 76.9106 74.2812 76.1092 76.2854C75.3077 78.2895 74.6058 83.9016 74.6058 83.9016C74.6058 83.9016 73.8043 97.3295 74.1044 101.94V102.541H75.0062H74.1044V103.043C74.1044 103.444 74.305 103.844 74.6058 104.045C75.3071 104.345 78.4135 104.846 78.8147 104.846C79.2159 104.846 78.2137 103.944 78.5138 103.844C78.8147 103.744 81.2192 104.245 81.3195 104.545C81.4198 104.846 81.5201 105.146 80.8182 105.146C80.1169 105.146 79.415 105.046 79.415 105.046C79.415 105.046 80.5173 105.347 82.722 105.447C84.9267 105.547 104.667 105.447 104.667 105.447L118.797 105.547H120.4L134.53 105.447C134.53 105.447 154.371 105.547 156.475 105.447C158.68 105.347 159.782 105.046 159.782 105.046C159.782 105.046 158.981 105.146 158.379 105.146C157.778 105.146 157.778 104.946 157.878 104.545C158.078 104.245 160.484 103.744 160.684 103.844C160.984 103.944 159.982 104.846 160.383 104.846C160.784 104.846 163.89 104.345 164.592 104.045C164.993 103.944 165.093 103.444 165.093 103.043V102.541H164.191H165.093V101.94C165.395 97.2294 164.493 83.8013 164.493 83.8013L164.494 83.8006ZM155.174 104.243C149.262 104.944 126.614 104.944 120.401 104.944H119.599H118.798C112.485 104.944 89.8367 104.944 84.0244 104.243C81.519 103.942 79.8156 103.642 78.7133 103.341C78.7133 102.139 78.9139 97.3289 79.6151 95.7251C80.4166 93.9216 82.0203 93.4201 83.0224 93.4201C84.0245 93.4201 94.4462 93.6206 94.4462 93.6206H144.952C144.952 93.6206 155.373 93.4201 156.375 93.4201C157.377 93.4201 158.981 93.9215 159.783 95.7251C160.484 97.3282 160.684 102.038 160.684 103.341C159.382 103.542 157.678 103.843 155.173 104.243H155.174ZM164.795 99.7342C164.895 100.035 164.795 101.638 164.795 101.939C164.795 102.24 164.494 101.939 164.293 101.738C164.093 101.538 163.692 101.538 163.392 101.538C163.191 101.538 163.191 102.239 162.991 102.339C162.79 102.44 162.489 102.039 162.489 102.039V97.93C162.489 94.322 162.389 94.022 162.289 93.6208C162.188 93.2197 162.188 95.9258 162.188 95.9258L162.389 102.239L162.489 102.54V102.64C162.289 102.74 161.788 103.041 160.485 103.341C160.485 102.64 160.385 99.4335 159.984 97.2288C160.084 97.1285 160.485 96.6278 160.785 96.2267C161.086 95.7253 161.186 96.1264 161.386 96.2267C161.486 96.327 161.386 97.8297 161.486 97.8297C161.587 97.8297 161.787 98.1306 161.787 98.1306C161.787 98.1306 161.687 100.034 161.888 101.237C162.088 102.44 162.188 102.339 162.289 102.339C162.39 102.339 162.19 98.1305 162.089 97.7301C161.989 97.329 161.688 95.8263 161.688 95.4251C161.688 95.0239 162.289 94.5233 162.19 94.1222C162.089 93.7211 161.889 93.9216 161.889 93.9216C161.889 93.9216 160.887 95.625 160.686 95.9258C160.486 96.1263 160.185 96.5267 159.985 96.7273C159.885 96.3262 159.784 95.9258 159.684 95.6249C158.883 93.8214 157.279 93.3199 156.277 93.3199C155.275 93.3199 144.853 93.5205 144.853 93.5205L120.302 93.5211H94.1471C94.1471 93.5211 83.7253 93.3206 82.7233 93.3206C81.7212 93.3206 80.1175 93.8219 79.316 95.6256C79.2157 95.9264 79.1154 96.3268 79.0152 96.7279C78.8146 96.5274 78.5138 96.127 78.3139 95.9264C78.1134 95.7259 77.1113 93.9223 77.1113 93.9223C77.1113 93.9216 76.8105 93.7211 76.7102 94.1222C76.6099 94.5233 77.2116 95.024 77.2116 95.4251C77.2116 95.8262 76.9108 97.3289 76.8105 97.7301C76.7102 98.1312 76.4094 102.34 76.5097 102.34C76.6099 102.34 76.8105 102.44 76.9108 101.238C77.1113 100.035 77.011 98.1312 77.011 98.1312C77.011 98.1312 77.2116 97.8304 77.3118 97.8304C77.4121 97.8304 77.2116 96.327 77.4121 96.2274C77.5124 96.1271 77.7129 95.726 78.0131 96.2274C78.3139 96.6285 78.7144 97.1292 78.8146 97.2294C78.4135 99.4342 78.3133 102.741 78.3133 103.342C77.0104 103.041 76.5097 102.741 76.3091 102.641V102.541L76.4094 102.24L76.6099 95.9265C76.6099 95.9265 76.6099 93.2211 76.5097 93.6215C76.4094 94.0226 76.3091 94.3227 76.3091 97.9306V102.039C76.3098 102.039 76.2095 102.239 75.9087 102.239C75.7081 102.139 75.8084 101.438 75.5076 101.438C75.307 101.438 74.9066 101.438 74.6058 101.638C74.4052 101.839 74.1044 102.239 74.1044 101.839C74.1044 101.438 74.0042 99.9348 74.1044 99.6339C74.2047 99.3331 74.2047 99.4334 74.2047 99.4334C74.2047 99.4334 74.0042 97.73 74.0042 96.2267C74.0042 94.7234 74.1044 89.1118 74.1044 89.1118C74.1044 89.1118 74.305 85.9051 74.6058 83.8007C74.9066 81.6963 74.9066 79.8927 74.9066 79.8927C74.9066 79.8927 75.0069 77.1874 76.61 75.3831C78.2131 73.5796 78.915 73.0781 78.915 73.0781C78.915 73.0781 79.0153 72.9778 79.7165 72.677C80.5181 72.4765 80.7186 72.5767 80.5181 72.2759C80.3175 72.0754 79.9171 71.8748 79.9171 71.7746V71.2732C79.9171 71.4737 79.6163 71.6743 78.8147 71.574C77.9129 71.4737 76.8106 71.4737 76.4096 70.973C76.0085 70.5719 76.0085 68.7683 76.4096 68.067C76.8107 67.3658 78.0126 66.6639 80.0175 66.3636C82.0216 66.0628 83.1239 66.865 83.4248 67.0649C83.7256 67.3657 83.7256 70.1713 83.7256 70.2716C83.7256 70.3719 83.7256 71.0731 83.6253 71.1734C83.5251 71.2737 82.8238 71.4742 82.6233 71.6748C82.523 71.775 82.4227 72.2758 82.4227 72.2758H86.1303C86.1303 72.2758 87.1323 72.2758 87.3329 72.376C87.4331 72.376 87.5334 72.4763 87.734 72.4763L88.4352 72.6768C88.4352 72.6768 88.6358 72.6768 88.8363 72.7771C89.1371 72.8774 89.5376 72.8774 89.7381 72.7771C89.9387 72.6768 90.8405 71.0737 90.8405 71.0737C90.8405 71.0737 91.5417 70.1719 92.5439 68.869C93.5459 67.6664 94.949 66.1636 96.3515 64.5598C99.3578 61.3531 100.259 60.6519 100.861 60.5516C101.462 60.351 100.861 60.5516 100.761 60.4513C100.661 60.351 100.861 60.1505 100.961 59.9499C101.463 59.6491 102.665 59.1484 104.268 58.8476C106.473 58.5468 111.483 58.2466 111.483 58.2466V58.1463L111.684 58.0461C111.884 57.9458 111.884 57.8455 113.287 57.4451C114.389 57.1443 117.496 57.044 119.299 57.044C121.103 57.044 124.109 57.1443 125.312 57.4451C126.715 57.8462 126.715 57.9464 126.915 58.0461L127.115 58.1463L127.117 58.0461C127.117 58.0461 132.227 58.2466 134.332 58.647C136.035 58.9479 137.137 59.4486 137.639 59.7494C137.739 59.9499 137.939 60.1505 137.839 60.2508C137.739 60.351 137.138 60.2508 137.739 60.351C138.34 60.5516 139.242 61.1525 142.249 64.3593C143.752 65.9623 145.154 67.566 146.056 68.6684C147.058 69.9713 147.76 70.8732 147.76 70.8732C147.76 70.8732 148.661 72.4762 148.862 72.5766C148.962 72.6768 149.363 72.5766 149.764 72.5766C149.964 72.5766 150.165 72.4763 150.165 72.4763L150.866 72.2758C150.966 72.2758 151.167 72.1755 151.267 72.1755C151.468 72.1755 152.47 72.0752 152.47 72.0752H156.177C156.177 72.0752 156.077 71.6741 155.977 71.4742C155.876 71.374 155.075 71.0731 154.975 70.9729C154.875 70.8733 155.075 70.3726 155.075 70.2723C155.075 70.172 155.075 67.3663 155.376 67.0656C155.677 66.7648 156.779 66.0635 158.783 66.3643C160.787 66.6651 161.99 67.3664 162.391 68.0677C162.792 68.769 162.792 70.5732 162.391 70.9737C161.99 71.3748 160.888 71.4751 159.986 71.5747C159.084 71.675 158.883 71.4744 158.883 71.2739V71.7752C158.883 71.9758 158.482 72.076 158.283 72.2766C158.082 72.4771 158.283 72.3769 159.084 72.6777C159.886 72.8782 159.886 73.0788 159.886 73.0788C159.886 73.0788 160.587 73.4799 162.191 75.3838C163.794 77.2876 163.894 79.8934 163.894 79.8934C163.894 79.8934 163.894 81.7972 164.195 83.8014C164.496 85.9058 164.696 89.1125 164.696 89.1125C164.696 89.1125 164.796 94.7245 164.796 96.2273C164.796 97.7308 164.596 99.4341 164.596 99.4341C164.595 99.4334 164.695 99.3331 164.796 99.7342L164.795 99.7342Z" fill="white"/>
<path d="M118.699 88.2104H116.995V89.1122H122.006V88.2104H118.699Z" fill="white"/>
<path d="M125.713 86.2061H120.302H118.699H113.288C112.687 86.2061 111.384 86.3064 110.181 86.1058C111.584 86.4066 113.087 86.5069 113.087 86.5069H125.914C125.914 86.5069 127.418 86.5069 128.82 86.1058C127.618 86.3057 126.315 86.2061 125.714 86.2061H125.713Z" fill="white"/>
<path d="M129.622 85.8049C130.323 85.5041 130.925 85.2039 131.225 84.7026C131.325 84.502 131.425 84.2012 131.626 83.8008C131.626 83.8008 131.526 83.9011 130.624 85.1037C130.324 85.5041 130.023 85.7047 129.622 85.8049H129.622Z" fill="white"/>
<path d="M158.982 70.5729C159.684 70.5729 160.987 70.4726 161.187 70.7734C161.287 70.974 161.689 71.0742 161.989 71.0742C162.089 70.974 162.189 70.8737 162.29 70.7734C162.39 70.6732 162.49 70.4726 162.49 70.3723C162.189 70.1718 161.689 69.871 161.588 69.6711C161.388 69.4705 160.687 69.6711 160.887 69.4705C161.087 69.2706 162.189 69.0701 162.089 69.0701C161.989 69.0701 160.886 68.4691 160.686 68.8695C160.485 69.2706 159.083 69.8716 158.682 70.0722C158.581 70.0722 158.581 70.1724 158.581 70.1724C158.381 70.1724 158.581 70.0722 158.581 70.0722C158.581 70.0722 159.083 69.6711 158.682 69.8716C158.281 70.0722 158.581 69.6711 158.581 69.6711C158.581 69.6711 160.886 68.2679 160.586 67.8675C160.285 67.5667 158.08 67.066 157.279 67.2666C156.477 67.5674 156.076 67.6676 156.377 68.2686C156.678 68.8696 157.379 69.371 156.978 69.5715C156.577 69.7721 155.976 69.2707 155.875 69.371C155.775 69.4712 156.276 70.0722 155.675 70.0722C155.374 70.0722 155.274 70.0722 155.074 69.9719V70.4733C155.274 70.7741 155.575 71.0743 155.875 71.0743C156.276 71.0743 156.777 70.4733 157.579 70.373C158.381 70.2728 158.281 70.5729 158.983 70.5729L158.982 70.5729Z" fill="white"/>
<path d="M163.593 88.0098C163.392 89.413 162.892 100.737 163.092 100.636C163.192 100.536 164.094 99.935 164.495 99.7344C164.495 98.1314 164.294 87.709 164.094 86.6065C163.994 85.5042 163.793 86.6065 163.593 88.0097V88.0098Z" fill="white"/>
<path d="M127.317 94.8234H111.685C111.685 94.8234 111.084 94.8234 111.084 95.4244V99.4327C111.084 99.4327 111.184 100.034 111.985 100.034H127.017C127.819 100.034 127.919 99.4327 127.919 99.4327V95.4244C127.918 94.8234 127.317 94.8234 127.317 94.8234H127.317Z" fill="white"/>
<path d="M122.907 101.839H116.092C115.992 101.839 115.892 101.94 115.892 102.04V102.341C115.892 102.441 115.992 102.541 116.092 102.541H122.907C123.007 102.541 123.107 102.441 123.107 102.341V102.139C123.107 101.94 123.007 101.839 122.907 101.839Z" fill="white"/>
<path d="M133.329 94.6228H132.428C132.127 94.6228 131.827 94.9236 131.827 95.2238V100.635C131.827 100.936 132.127 101.236 132.428 101.236H133.329C133.63 101.236 133.93 100.935 133.93 100.635V95.2238C133.93 94.923 133.63 94.6228 133.329 94.6228Z" fill="white"/>
<path d="M155.576 94.6228H140.644C139.542 94.6228 138.941 95.7252 138.941 96.7272V101.637C138.941 102.74 139.542 103.341 140.644 103.341L155.375 102.839C156.477 102.839 157.279 101.938 157.279 100.936V96.426C157.279 95.3243 156.678 94.6231 155.575 94.6231L155.576 94.6228Z" fill="white"/>
<path d="M160.886 104.945C157.279 105.346 153.772 105.546 150.164 105.546C141.546 105.546 128.118 105.646 119.499 105.646C110.88 105.646 97.4537 105.546 88.8347 105.546C85.2268 105.546 81.6197 105.346 78.1121 104.945C77.0098 104.845 76.2083 104.644 75.7069 104.544C75.6067 104.544 75.5064 104.544 75.4061 104.444C75.4061 104.444 75.6067 107.951 76.9096 108.753C78.2125 109.555 90.3375 110.557 105.068 110.557H118.697H120.3H133.929C148.76 110.557 160.785 109.554 162.087 108.753C163.39 107.951 163.591 104.444 163.591 104.444C163.491 104.444 163.39 104.444 163.29 104.544C162.89 104.644 161.988 104.845 160.886 104.945H160.886Z" fill="white"/>
<path d="M155.576 76.9853C151.668 76.9853 147.459 77.7868 145.855 78.0876C144.152 78.3884 143.249 78.589 143.249 78.589C143.249 78.589 143.35 77.8877 143.249 77.6872C143.149 77.4866 142.648 78.8898 142.648 78.8898L140.644 85.1028C142.949 85.3033 145.554 85.1028 145.554 85.1028L154.573 84.7017C154.573 84.7017 156.477 84.802 158.581 83.9002C160.686 82.9984 160.886 78.0877 160.886 78.0877L158.882 77.3865C157.179 76.8851 155.576 76.9854 155.576 76.9854L155.576 76.9853ZM160.486 78.2882C160.486 78.2882 159.684 82.3967 157.58 83.2986C155.475 84.2004 156.979 83.3989 157.279 82.7972C157.479 82.1962 157.98 80.5925 157.379 79.3899C156.878 78.2876 155.976 77.6865 154.674 77.4861C155.275 77.5863 156.377 77.9874 156.979 79.2896C156.979 79.2896 157.179 79.6907 157.28 80.4922C157.38 81.2937 157.179 82.5967 156.077 83.2979C154.974 84.1008 154.774 84.1008 153.772 84.1008H152.67H152.469C151.868 83.7999 150.866 83.0987 150.666 81.9963C150.465 80.4929 151.067 78.4887 151.267 78.2888C151.467 78.0882 150.265 78.3891 149.262 78.3891C148.26 78.3891 148.06 78.4893 148.16 78.4893C148.26 78.5896 149.964 79.1906 149.964 81.0951C149.964 81.0951 149.964 82.6982 148.761 83.6006C148.761 83.6006 148.06 84.0017 147.96 84.1019C148.26 84.0017 150.665 83.9014 151.567 84.2022L142.749 84.6033C142.749 84.6033 142.648 84.7036 142.448 84.9041C142.348 85.0044 141.747 84.9041 141.546 84.9041C141.446 84.9041 141.446 84.6033 141.446 84.503V84.4027C141.747 84.3025 142.247 84.1019 142.247 84.1019C142.247 84.1019 142.648 84.2022 143.249 84.2022H145.354C146.055 84.2022 145.655 84.0017 145.655 84.0017C145.655 84.0003 144.252 83.0979 144.052 81.4948C143.851 79.8918 144.653 79.591 144.653 79.591C144.653 79.591 144.251 79.3905 143.851 79.7916C143.45 80.1927 142.648 82.1967 142.348 82.7978C142.247 83.0986 141.947 83.4991 141.646 83.7999C142.047 82.2965 143.05 79.0897 143.45 78.9901C144.051 78.7895 151.767 77.2867 153.972 77.2867C156.277 77.2867 159.784 77.8877 160.185 78.1885L160.486 78.2882Z" fill="white"/>
<path d="M154.775 77.5871C154.574 77.5871 154.474 77.4868 154.374 77.4868C154.474 77.4868 154.574 77.4868 154.775 77.5871Z" fill="white"/>
<path d="M152.47 89.4123L141.246 89.5126C140.645 89.5126 139.943 90.0139 139.943 90.6149C139.943 91.2159 140.445 91.617 141.046 91.617L152.369 91.4164C152.97 91.4164 153.271 90.9151 153.271 90.3141C153.271 89.7124 153.071 89.4123 152.47 89.4123L152.47 89.4123ZM151.868 89.5119C151.868 89.5119 152.269 89.5119 152.569 89.6122H147.76L151.868 89.5119ZM140.645 90.8148C140.244 90.3134 140.745 90.2138 140.745 90.2138L141.146 90.7152H141.547C141.547 90.7152 142.049 90.2138 141.647 90.2138C141.246 90.2138 141.246 89.7125 141.246 89.7125H144.654L144.653 91.1156H145.054V89.8127H146.858V91.1156L142.448 91.3162C142.448 91.3162 140.945 91.4164 140.645 90.8148H140.645ZM152.269 90.9151L148.862 91.0154H147.659V90.0133H148.16V90.6143H148.26V89.8128H147.459V89.7125L152.67 89.5119C152.87 89.6122 153.171 89.7125 153.171 90.0133C153.271 90.8148 152.269 90.9151 152.269 90.9151L152.269 90.9151Z" fill="white"/>
<path d="M147.96 72.9784L148.761 72.7779L140.844 63.3582C140.844 63.3582 139.441 61.0531 136.836 60.3519C134.23 59.6506 129.821 59.4501 129.821 59.4501C129.821 59.4501 127.817 58.6486 127.516 58.6486C127.216 58.6486 127.216 59.0497 127.216 59.0497L120.201 58.8491H118.598L111.583 59.0497C111.583 59.0497 111.583 58.6486 111.283 58.6486C110.982 58.6486 108.978 59.4501 108.978 59.4501C108.978 59.4501 104.568 59.6506 101.963 60.3519C99.3574 61.0531 97.9549 63.3582 97.9549 63.3582L90.038 72.7779L90.8395 72.9784C91.5407 73.179 94.1465 73.4798 96.6519 73.7799C98.8567 73.9805 100.861 74.0807 101.262 74.181C101.763 74.2813 102.164 74.3816 102.464 74.5821C103.065 74.9832 103.266 75.3836 103.266 75.3836C104.368 77.6887 106.272 81.8974 107.174 83.9015L105.971 80.5945L103.566 75.5841L105.871 75.6843L104.869 75.8849H110.982C110.982 75.8849 112.285 77.6884 112.685 78.3903C113.086 79.0916 113.086 77.889 113.386 77.889H118.397H120H125.01C125.311 77.889 125.311 79.0916 125.712 78.3903C126.113 77.6891 127.415 75.8849 127.415 75.8849H133.528L132.526 75.6843L134.831 75.5841L132.425 80.5945L131.223 83.9015C132.225 81.8974 134.129 77.7888 135.131 75.3836C135.131 75.3836 135.432 74.9825 135.932 74.5821C136.233 74.3816 136.634 74.181 137.135 74.181C137.536 74.0807 139.54 73.9805 141.745 73.7799C144.653 73.4798 147.259 73.1789 147.96 72.9784H147.96ZM143.45 71.1749C143.651 71.0746 144.051 70.9743 144.252 70.9743C144.853 70.9743 145.153 71.0746 144.853 71.3754C144.552 71.6762 143.75 71.6762 143.75 71.6762C143.05 71.5753 143.15 71.2751 143.45 71.1749ZM141.346 68.2682C141.646 68.569 143.249 71.5752 142.649 71.1742C142.649 71.1742 141.947 70.3727 141.546 69.4708C141.146 68.569 141.045 67.968 141.346 68.2682V68.2682ZM138.239 68.6693C139.442 69.0704 141.145 69.1707 141.145 69.6714C141.145 69.6714 137.537 69.9722 137.537 69.3706C137.538 68.7696 137.037 68.3685 138.239 68.6693H138.239ZM135.133 64.8617C135.834 65.5629 136.936 67.1667 136.436 67.2668C136.436 67.2668 135.133 67.0663 134.833 66.0642C134.532 65.0621 134.432 64.1597 135.133 64.8616V64.8617ZM118.699 61.5546H119.5H120.302H126.014C126.315 61.9557 126.815 62.657 127.217 63.258C127.818 64.2601 127.417 67.166 127.417 67.5672C127.417 67.9684 128.118 68.6695 128.62 67.7677C129.121 66.8659 131.726 66.866 132.728 66.866C133.831 66.866 134.532 67.3673 133.23 67.6675C131.927 67.9683 132.228 70.4731 132.228 70.7739C132.228 71.175 133.831 71.175 132.829 71.3749C131.826 71.5754 131.425 72.5775 131.425 72.5775H130.122C129.522 72.5775 128.519 72.0761 127.918 71.776C127.918 71.776 127.416 71.5754 126.315 70.9744C126.114 70.1729 125.714 68.5693 125.413 68.469C125.012 68.3687 124.912 68.2684 124.912 68.2684C124.912 68.2684 123.909 68.5692 123.609 68.2684C123.308 67.9676 125.012 67.4669 125.212 66.8653C125.412 66.2643 124.009 64.7608 124.009 64.7608H115.391C115.391 64.7608 113.988 66.3639 114.188 66.8653C114.389 67.4663 115.992 67.9676 115.791 68.2684C115.491 68.5692 114.488 68.2684 114.488 68.2684C114.488 68.2684 114.288 68.3687 113.987 68.469C113.686 68.5693 113.286 70.2725 113.085 70.9744C111.983 71.6757 111.482 71.776 111.482 71.776C110.881 72.0768 109.879 72.5775 109.278 72.5775H107.975C107.975 72.5775 107.574 71.5754 106.571 71.3749C105.569 71.1743 107.172 71.1743 107.172 70.7739C107.172 70.3728 107.473 67.8679 106.17 67.6675C104.868 67.4669 105.569 66.866 106.672 66.866C107.774 66.866 110.379 66.8659 110.78 67.7677C111.282 68.6695 111.983 67.9683 111.983 67.5672C111.983 67.1661 111.582 64.1599 112.183 63.258C112.585 62.6571 112.985 61.9551 113.386 61.5546C114.79 61.4544 116.795 61.4544 118.699 61.5546H118.699ZM125.012 70.1728C124.811 70.0725 124.611 69.872 124.411 69.7717C124.21 69.6714 124.11 69.5711 123.91 69.4709C124.411 69.1701 124.611 68.6694 124.611 68.6694L125.012 69.6714V70.1728ZM115.091 69.4709C114.89 69.5711 114.79 69.6714 114.589 69.7717C114.389 69.872 114.188 70.0725 113.988 70.1728V69.6714L114.39 68.6694C114.39 68.7696 114.69 69.1707 115.091 69.4709ZM103.867 64.8617C104.569 64.1604 104.468 65.0622 104.168 66.0643C103.867 67.0663 102.565 67.2669 102.565 67.2669C102.063 67.2662 103.166 65.563 103.867 64.8617V64.8617ZM100.761 68.6693C101.964 68.2682 101.462 68.7696 101.462 69.3706C101.462 69.9716 97.8544 69.6714 97.8544 69.6714C97.8544 69.1707 99.5583 69.0704 100.761 68.6693V68.6693ZM95.3496 71.6756C95.3496 71.6756 94.5481 71.6756 94.2472 71.3748C93.9464 71.074 94.2472 70.9737 94.8482 70.9737C95.0488 70.9737 95.4492 71.074 95.6497 71.1742C95.8503 71.2752 95.9506 71.5753 95.3496 71.6756ZM96.3517 71.0746C95.7507 71.576 97.3537 68.4689 97.6546 68.1686C97.9554 67.8678 97.8551 68.4695 97.454 69.3713C96.9526 70.2731 96.3517 71.0747 96.3517 71.0747V71.0746ZM100.761 72.6777C100.761 72.6777 100.861 72.5774 101.362 72.1763C101.863 71.7752 102.965 71.3748 102.965 71.3748C102.965 71.3748 103.166 70.1722 103.566 69.8713C103.867 69.5705 103.867 69.9716 103.867 70.7731C103.867 71.5747 105.07 71.2745 105.07 71.2745C105.07 71.2745 105.671 71.3748 104.769 71.6756C103.967 71.9764 103.666 72.778 103.666 72.778H100.761L100.761 72.6777ZM126.916 76.486L126.414 76.9874H112.385L111.884 76.486C111.884 76.486 111.583 75.9846 111.683 75.9846H118.498H120.101H126.916C127.317 75.9846 126.916 76.486 126.916 76.486H126.916ZM135.433 72.6777C135.433 72.6777 135.133 71.8762 134.331 71.5753C133.53 71.2745 134.03 71.1742 134.03 71.1742C134.03 71.1742 135.233 71.475 135.233 70.6729C135.233 69.8713 135.133 69.4702 135.534 69.7711C135.835 70.0719 136.135 71.2745 136.135 71.2745C136.135 71.2745 137.337 71.6756 137.738 72.076C138.239 72.5774 138.339 72.5774 138.339 72.5774H135.433L135.433 72.6777Z" fill="white"/>
<path d="M152.169 90.0141H152.57V90.6151H152.169V90.0141Z" fill="white"/>
<path d="M150.365 73.179C150.365 73.179 151.367 72.8782 151.568 72.8782C151.768 72.8782 153.572 72.6776 154.174 72.6776H157.08L157.079 72.4777H153.471C153.471 72.4777 150.164 72.8788 149.863 73.179C149.463 73.4798 150.365 73.179 150.365 73.179H150.365Z" fill="white"/>
<path d="M151.968 80.795C151.968 80.5945 151.968 80.3939 152.069 80.194C151.868 80.4948 151.868 80.795 151.868 81.0958C151.868 82.2984 152.87 83.2003 154.173 83.2003C155.476 83.2003 156.478 82.2985 156.478 81.0958C156.478 80.795 156.378 80.4948 156.278 80.194C156.378 80.3946 156.378 80.5951 156.378 80.795C156.378 81.8974 155.376 82.7991 154.173 82.7991C152.97 82.6989 151.968 81.8973 151.968 80.795H151.968Z" fill="white"/>
<path d="M145.554 80.9939C145.554 80.7934 145.554 80.6931 145.654 80.4926C145.554 80.7934 145.454 80.9939 145.454 81.2941C145.454 82.2961 146.356 83.1979 147.558 83.1979C148.661 83.1979 149.663 82.3964 149.663 81.2941C149.663 80.9933 149.562 80.6931 149.462 80.4926C149.562 80.6931 149.562 80.7934 149.562 80.9939C149.562 81.996 148.661 82.7974 147.659 82.7974C146.457 82.7981 145.554 81.9966 145.554 80.9939H145.554Z" fill="white"/>
<path d="M157.58 78.6904C157.58 78.6904 158.682 78.189 158.883 78.189C159.083 78.189 157.78 77.6876 157.179 77.7879C156.478 77.8882 156.879 78.8903 157.58 78.6904H157.58Z" fill="white"/>
</svg>
